<svg width="351" height="497" viewBox="0 0 351 497" fill="none" xmlns="http://www.w3.org/2000/svg">
<path d="M336.995 48.6699C343.073 48.6699 348 53.5969 348 59.6747V483.359C348 489.437 343.073 494.364 336.995 494.364H30.512C24.4342 494.364 19.5072 489.437 19.5072 483.359M13 479.507H321.493C327.016 479.507 331.493 475.03 331.493 469.507V43.8135C331.493 38.2906 327.016 33.8135 321.493 33.8135H13C7.47715 33.8135 3 38.2906 3 43.8135V469.507C3 475.03 7.47715 479.507 13 479.507Z" stroke="#54635B" stroke-width="5" stroke-linecap="round" stroke-linejoin="round"/>
<path d="M43.7179 28.8612V12.3541C43.7179 7.18795 39.5299 3 34.3638 3V3C29.1977 3 25.0098 7.18796 25.0098 12.3541V62.4258C25.0098 67.5919 29.1977 71.7799 34.3638 71.7799V71.7799C39.5299 71.7799 43.7179 67.5919 43.7179 62.4258V58.5" stroke="#54635B" stroke-width="5" stroke-linecap="round" stroke-linejoin="round"/>
<path d="M222.54 292.055C223.421 349.72 119.095 349.83 119.095 292.055" stroke="#54635B" stroke-width="3" stroke-linecap="round" stroke-linejoin="round"/>
<path d="M132.457 195.584C132.457 202.816 130.779 209.291 128.142 213.904C125.481 218.561 122.034 221.046 118.55 221.046C115.066 221.046 111.619 218.561 108.958 213.904C106.322 209.291 104.644 202.816 104.644 195.584C104.644 188.351 106.322 181.877 108.958 177.263C111.619 172.607 115.066 170.122 118.55 170.122C122.034 170.122 125.481 172.607 128.142 177.263C130.779 181.877 132.457 188.351 132.457 195.584Z" stroke="#54635B" stroke-width="3" stroke-linecap="round"/>
<path d="M237.002 195.584C237.002 202.816 235.324 209.291 232.687 213.904C230.027 218.561 226.58 221.046 223.096 221.046C219.612 221.046 216.165 218.561 213.504 213.904C210.867 209.291 209.189 202.816 209.189 195.584C209.189 188.351 210.867 181.877 213.504 177.263C216.165 172.607 219.612 170.122 223.096 170.122C226.58 170.122 230.027 172.607 232.687 177.263C235.324 181.877 237.002 188.351 237.002 195.584Z" stroke="#54635B" stroke-width="3" stroke-linecap="round"/>
</svg>
