<svg width="351" height="497" viewBox="0 0 351 497" fill="none" xmlns="http://www.w3.org/2000/svg">
<path d="M336.995 48.6699C343.073 48.6699 348 53.5969 348 59.6747V483.359C348 489.437 343.073 494.364 336.995 494.364H30.512C24.4342 494.364 19.5072 489.437 19.5072 483.359M13 479.507H321.493C327.016 479.507 331.493 475.03 331.493 469.507V43.8135C331.493 38.2906 327.016 33.8135 321.493 33.8135H13C7.47715 33.8135 3 38.2906 3 43.8135V469.507C3 475.03 7.47715 479.507 13 479.507Z" stroke="#54635B" stroke-width="5" stroke-linecap="round" stroke-linejoin="round" stroke-dasharray="10 10"/>
<path d="M43.7179 28.8612V12.3541C43.7179 7.18795 39.5299 3 34.3638 3V3C29.1977 3 25.0098 7.18796 25.0098 12.3541V62.4258C25.0098 67.5919 29.1977 71.7799 34.3638 71.7799V71.7799C39.5299 71.7799 43.7179 67.5919 43.7179 62.4258V58.5" stroke="#54635B" stroke-width="5" stroke-linecap="round" stroke-linejoin="round" stroke-dasharray="10 10"/>
<path d="M119.101 335.345C118.22 277.68 222.546 277.569 222.546 335.345" stroke="#54635B" stroke-width="3" stroke-linecap="round" stroke-linejoin="round" stroke-dasharray="6 6"/>
<path d="M132.174 182.98C132.957 185.57 133.507 188.409 133.774 191.412C132.958 191.471 132.338 192.174 132.384 192.993C132.432 193.845 132.457 194.709 132.457 195.584C132.457 196.459 132.432 197.323 132.384 198.175C132.338 198.994 132.958 199.697 133.774 199.755C133.507 202.759 132.957 205.598 132.174 208.187C131.4 207.935 130.562 208.347 130.293 209.119C129.701 210.817 129.004 212.373 128.223 213.761C127.824 214.47 128.064 215.365 128.756 215.781C127.008 218.489 124.906 220.512 122.587 221.611C122.307 220.885 121.511 220.488 120.754 220.716C120.033 220.934 119.298 221.046 118.55 221.046C117.803 221.046 117.067 220.934 116.346 220.716C115.59 220.488 114.794 220.885 114.514 221.611C112.194 220.512 110.092 218.489 108.344 215.781C109.036 215.365 109.276 214.47 108.877 213.761C108.097 212.373 107.4 210.817 106.807 209.119C106.538 208.347 105.701 207.935 104.927 208.187C104.143 205.598 103.593 202.759 103.327 199.755C104.142 199.697 104.762 198.994 104.716 198.175C104.668 197.323 104.644 196.459 104.644 195.584C104.644 194.709 104.668 193.845 104.716 192.993C104.762 192.174 104.142 191.471 103.327 191.412C103.593 188.409 104.143 185.57 104.927 182.98C105.701 183.233 106.538 182.82 106.807 182.048C107.4 180.351 108.097 178.794 108.877 177.406C109.276 176.697 109.036 175.803 108.344 175.386C110.092 172.679 112.195 170.656 114.514 169.557C114.794 170.282 115.59 170.68 116.346 170.452C117.067 170.234 117.803 170.122 118.55 170.122C119.298 170.122 120.033 170.234 120.754 170.452C121.511 170.68 122.307 170.282 122.587 169.557C124.906 170.656 127.008 172.679 128.756 175.386C128.064 175.803 127.824 176.697 128.223 177.406C129.004 178.794 129.701 180.351 130.293 182.048C130.562 182.82 131.4 183.233 132.174 182.98Z" stroke="#54635B" stroke-width="3" stroke-linecap="round" stroke-dasharray="6 13"/>
<path d="M236.719 182.98C237.503 185.57 238.053 188.409 238.319 191.412C237.504 191.471 236.884 192.174 236.93 192.993C236.978 193.845 237.002 194.709 237.002 195.584C237.002 196.459 236.978 197.323 236.93 198.175C236.884 198.994 237.504 199.697 238.319 199.755C238.053 202.759 237.503 205.598 236.719 208.187C235.945 207.935 235.108 208.347 234.838 209.119C234.246 210.817 233.549 212.373 232.769 213.761C232.37 214.47 232.609 215.365 233.302 215.781C231.554 218.489 229.451 220.512 227.132 221.611C226.852 220.885 226.056 220.488 225.3 220.716C224.578 220.934 223.843 221.046 223.096 221.046C222.348 221.046 221.613 220.934 220.892 220.716C220.135 220.488 219.339 220.885 219.059 221.611C216.74 220.512 214.638 218.489 212.89 215.781C213.582 215.365 213.821 214.47 213.423 213.761C212.642 212.373 211.945 210.817 211.353 209.119C211.083 208.347 210.246 207.935 209.472 208.187C208.689 205.598 208.139 202.759 207.872 199.755C208.688 199.697 209.308 198.994 209.261 198.175C209.214 197.323 209.189 196.459 209.189 195.584C209.189 194.709 209.214 193.845 209.261 192.993C209.308 192.174 208.688 191.471 207.872 191.412C208.139 188.409 208.689 185.57 209.472 182.98C210.246 183.233 211.083 182.82 211.353 182.048C211.945 180.351 212.642 178.794 213.423 177.406C213.821 176.697 213.582 175.803 212.89 175.386C214.638 172.679 216.74 170.656 219.059 169.557C219.339 170.282 220.135 170.68 220.892 170.452C221.613 170.234 222.348 170.122 223.096 170.122C223.843 170.122 224.578 170.234 225.3 170.452C226.056 170.68 226.852 170.282 227.132 169.557C229.451 170.656 231.554 172.679 233.302 175.386C232.609 175.803 232.37 176.697 232.769 177.406C233.549 178.794 234.246 180.351 234.838 182.048C235.108 182.82 235.945 183.233 236.719 182.98Z" stroke="#54635B" stroke-width="3" stroke-linecap="round" stroke-dasharray="6 13"/>
</svg>
