<svg width="16" height="16" viewBox="0 0 16 16" fill="none" xmlns="http://www.w3.org/2000/svg">
<g clip-path="url(#clip0_900_974)">
<path d="M1.34991 15.087L8.33251 8.10316L8.33379 7.20239L1.35247 0.219792C1.20123 0.0762046 0.999902 -0.002629 0.791383 6.69358e-05C0.582863 0.00277565 0.383645 0.0868096 0.236187 0.234268C0.088728 0.381727 0.00469405 0.580945 0.00198534 0.789464C-0.000723374 0.997984 0.0781231 1.19932 0.22171 1.35055L6.52585 7.65086L0.220433 13.955C0.0766666 14.1061 -0.00240996 14.3073 5.59884e-05 14.5159C0.00252194 14.7244 0.0863387 14.9237 0.233631 15.0713C0.380924 15.219 0.580052 15.3032 0.788572 15.3061C0.997091 15.3091 1.19852 15.2305 1.34991 15.087ZM9.01607 15.087L15.9987 8.10316L16 7.20239L9.01863 0.219792C8.8674 0.0762046 8.66606 -0.002629 8.45754 6.69358e-05C8.24902 0.00277565 8.04981 0.0868096 7.90235 0.234268C7.75489 0.381727 7.67086 0.580945 7.66815 0.789464C7.66544 0.997984 7.74428 1.19932 7.88787 1.35055L14.1921 7.65086L7.88659 13.955C7.74283 14.1061 7.66375 14.3073 7.66622 14.5159C7.66868 14.7244 7.7525 14.9237 7.89979 15.0713C8.04709 15.219 8.24621 15.3032 8.45473 15.3061C8.66325 15.3091 8.86468 15.2305 9.01607 15.087Z" fill="#54635B"/>
</g>
<defs>
<clipPath id="clip0_900_974">
<rect width="16" height="16" fill="white"/>
</clipPath>
</defs>
</svg>
