<svg width="16" height="16" viewBox="0 0 16 16" fill="none" xmlns="http://www.w3.org/2000/svg">
<path d="M7.375 9.125V13.375C7.375 13.5408 7.44085 13.6997 7.55806 13.8169C7.67527 13.9342 7.83424 14 8 14C8.16576 14 8.32473 13.9342 8.44195 13.8169C8.55916 13.6997 8.625 13.5408 8.625 13.375V9.125L9.125 8.625H13.375C13.5407 8.625 13.6997 8.55915 13.8169 8.44194C13.9341 8.32473 14 8.16576 14 8C14 7.83424 13.9341 7.67527 13.8169 7.55806C13.6997 7.44085 13.5407 7.375 13.375 7.375H9.125L8.625 6.875V2.625C8.625 2.45924 8.55916 2.30027 8.44195 2.18306C8.32473 2.06585 8.16576 2 8 2C7.83424 2 7.67527 2.06585 7.55806 2.18306C7.44085 2.30027 7.375 2.45924 7.375 2.625V6.875L6.875 7.375H2.625C2.45924 7.375 2.30027 7.44085 2.18306 7.55806C2.06585 7.67527 2 7.83424 2 8C2 8.16576 2.06585 8.32473 2.18306 8.44194C2.30027 8.55915 2.45924 8.625 2.625 8.625H6.762L7.375 9.125Z" fill="#54635B"/>
</svg>
