<svg width="16" height="16" viewBox="0 0 16 16" fill="none" xmlns="http://www.w3.org/2000/svg">
<path d="M8.34102 11.5314L13.8071 6.06638C13.8653 6.00841 13.9115 5.93949 13.943 5.8636C13.9744 5.78771 13.9906 5.70634 13.9905 5.62417C13.9904 5.54201 13.9741 5.46067 13.9424 5.38485C13.9108 5.30903 13.8644 5.24022 13.8061 5.18238C13.6884 5.06556 13.5294 5 13.3636 5C13.1978 5 13.0387 5.06556 12.9211 5.18238L7.98702 10.1174L3.05702 5.18338C2.93866 5.071 2.78109 5.00929 2.61789 5.01141C2.45468 5.01353 2.29876 5.0793 2.18335 5.19471C2.06794 5.31012 2.00217 5.46604 2.00005 5.62924C1.99794 5.79244 2.05965 5.95001 2.17202 6.06838L7.63702 11.5324L8.34102 11.5314Z" fill="#54635B"/>
</svg>
