<svg width="16" height="16" viewBox="-2 0 16 16" fill="none" xmlns="http://www.w3.org/2000/svg">
<path d="M10.0341 8.42014L11.0624 9.46856V8V4V2V0.7751C11.1359 0.821694 11.2046 0.877127 11.2671 0.940843C11.4829 1.16087 11.6062 1.46171 11.6062 1.77778V14.2222C11.6062 14.5383 11.4829 14.8391 11.2671 15.0592C11.0517 15.2788 10.762 15.4 10.4624 15.4H1.74374C1.44419 15.4 1.1545 15.2788 0.939075 15.0592C0.723263 14.8391 0.6 14.5383 0.6 14.2222V1.77778C0.6 1.46171 0.723263 1.16087 0.939075 0.940843C1.1545 0.721212 1.44419 0.6 1.74374 0.6H5.01484V2V4V6V8V9.46856L6.04319 8.42014L8.03865 6.38574L10.0341 8.42014Z" stroke="black" stroke-width="1.5"/>
</svg>
