<svg width="16" height="16" viewBox="0 0 16 16" fill="none" xmlns="http://www.w3.org/2000/svg">
<path d="M9.79553 7.33397H7.86453C7.41953 7.33397 7.19553 7.87297 7.51053 8.18797L10.1926 10.87C10.3876 11.065 10.7046 11.065 10.8996 10.87L13.5816 8.18797C13.8966 7.87297 13.6736 7.33397 13.2276 7.33397H11.2956V4.39797H11.2976V3.14797H11.2956V2.32397H9.79553V3.14797H9.79253V4.39797H9.79653V7.33397H9.79553Z" fill="#7FB800"/>
<path d="M14.0952 3.04762H12.8721V4.31746H14.0952C14.4457 4.31746 14.7302 4.6019 14.7302 4.95238V13.0794C14.7302 13.4299 14.4457 13.7143 14.0952 13.7143H1.90476C1.55429 13.7143 1.26984 13.4299 1.26984 13.0794V2.92063C1.26984 2.57015 1.55429 2.28571 1.90476 2.28571H5.60559C5.7854 2.28571 5.95708 2.36292 6.07797 2.496L7.52864 4.10717C7.64851 4.24127 7.82019 4.31746 8 4.31746H8.29562V3.04762H8.28241L7.0207 1.64571C6.66006 1.24546 6.144 1.01587 5.60457 1.01587H1.90476C0.854349 1.01587 0 1.87022 0 2.92063V13.0794C0 14.1298 0.854349 14.9841 1.90476 14.9841H14.0952C15.1457 14.9841 16 14.1298 16 13.0794V4.95238C16 3.90196 15.1457 3.04762 14.0952 3.04762Z" fill="#54635B"/>
</svg>
