<svg width="16" height="16" viewBox="0 0 16 16" fill="none" xmlns="http://www.w3.org/2000/svg">
<path d="M8.85214 2.69307C8.85214 2.46541 8.96754 2.25769 9.15953 2.13704L10.3219 1.41105C10.4269 1.34601 10.5465 1.31139 10.6703 1.31139H12.3929V0H10.6703C10.301 0 9.94112 0.103862 9.62743 0.298997L8.46502 1.02603C8.36535 1.08793 8.28142 1.16766 8.19645 1.2453C8.11042 1.16766 8.02754 1.08793 7.92787 1.02603L6.76441 0.298997C6.45072 0.103862 6.09088 0 5.72264 0H4V1.31139H5.72264C5.84539 1.31139 5.96603 1.34601 6.07095 1.41105L7.23336 2.13704C7.4264 2.25769 7.5418 2.46541 7.5418 2.69307V7.99948V13.3059C7.5418 13.5335 7.4264 13.7413 7.23336 13.8619L6.0699 14.5879C5.96499 14.6529 5.84539 14.6876 5.72159 14.6876H4V15.999H5.72264C6.09193 15.999 6.45177 15.8951 6.76546 15.7L7.92787 14.974C8.02859 14.911 8.11147 14.8313 8.19645 14.7547C8.28142 14.8313 8.36535 14.911 8.46502 14.974L9.62848 15.701C9.94217 15.8961 10.302 16 10.6713 16H12.3929V14.6886H10.6703C10.5475 14.6886 10.4269 14.654 10.3219 14.5889L9.15953 13.863C8.96649 13.7423 8.85214 13.5346 8.85214 13.3069V7.99948V2.69307Z" fill="#54635B"/>
</svg>
