<svg width="16" height="16" viewBox="0 0 16 16" fill="none" xmlns="http://www.w3.org/2000/svg">
<g clip-path="url(#clip0_771_1203)">
<path fill-rule="evenodd" clip-rule="evenodd" d="M6.00007 13.5385C6.00022 12.995 5.83186 12.4671 5.52173 12.0385L6.80684 10.2615C7.09307 10.3948 7.40176 10.4629 7.71356 10.4615C7.76602 10.4628 7.8185 10.4602 7.87063 10.4538L8.18477 11.4769C7.7267 11.7996 7.39179 12.2892 7.24132 12.8561C7.09086 13.4231 7.1349 14.0294 7.36539 14.5642C7.59589 15.099 7.99741 15.5265 8.49649 15.7685C8.99557 16.0105 9.55884 16.0507 10.0832 15.8819C10.6076 15.713 11.058 15.3464 11.352 14.8491C11.646 14.3517 11.764 13.7569 11.6843 13.1736C11.6047 12.5902 11.3327 12.0572 10.9182 11.6722C10.5037 11.2872 9.97433 11.0759 9.42705 11.0769C9.37459 11.0756 9.32211 11.0782 9.26998 11.0846L8.95584 10.0615C9.27563 9.83913 9.53859 9.53392 9.72069 9.17379C9.90278 8.81366 9.99819 8.4101 9.99821 8C9.99607 7.86362 9.98654 7.72749 9.96965 7.59231L11.0691 7.06923C11.2816 7.36017 11.5527 7.59517 11.8619 7.75644C12.1712 7.91771 12.5105 8.001 12.854 8C13.3059 8 13.7476 7.85563 14.1233 7.58516C14.499 7.31468 14.7918 6.93024 14.9648 6.48045C15.1377 6.03067 15.1829 5.53573 15.0948 5.05824C15.0066 4.58075 14.789 4.14215 14.4695 3.79789C14.15 3.45364 13.7429 3.2192 13.2997 3.12422C12.8566 3.02924 12.3972 3.07799 11.9797 3.2643C11.5623 3.45061 11.2054 3.76611 10.9544 4.17091C10.7034 4.5757 10.5694 5.05162 10.5694 5.53846C10.5715 5.67484 10.581 5.81097 10.5979 5.94616L9.49844 6.46923C9.28602 6.1783 9.0149 5.94329 8.70565 5.78202C8.3964 5.62076 8.05713 5.53747 7.71356 5.53846C7.35133 5.53904 6.99429 5.63126 6.67119 5.80769L5.04338 3.83077C5.32672 3.37469 5.46048 2.82966 5.42338 2.28229C5.38629 1.73492 5.18048 1.2166 4.83864 0.809699C4.49681 0.402797 4.03857 0.130648 3.53674 0.0364952C3.0349 -0.0576575 2.51825 0.0315867 2.06888 0.290048C1.61952 0.548509 1.26321 0.96136 1.05657 1.463C0.849935 1.96465 0.804825 2.52631 0.928408 3.05874C1.05199 3.59117 1.33718 4.06383 1.73866 4.40162C2.14014 4.73941 2.63487 4.92295 3.14426 4.92308C3.50649 4.92251 3.86353 4.83029 4.18663 4.65385L5.81445 6.63077C5.54833 7.05895 5.41409 7.56654 5.43075 8.08154C5.44741 8.59654 5.61413 9.09282 5.90726 9.5L4.62214 11.2769C4.33592 11.1437 4.02723 11.0756 3.71542 11.0769C3.26356 11.0769 2.82185 11.2213 2.44614 11.4918C2.07043 11.7622 1.7776 12.1467 1.60468 12.5965C1.43176 13.0463 1.38652 13.5412 1.47467 14.0187C1.56283 14.4962 1.78042 14.9348 2.09993 15.279C2.41945 15.6233 2.82653 15.8577 3.26971 15.9527C3.71289 16.0477 4.17226 15.9989 4.58972 15.8126C5.00719 15.6263 5.364 15.3108 5.61504 14.906C5.86608 14.5012 6.00007 14.0253 6.00007 13.5385ZM10.3769 14.2222C10.5024 14.0198 10.5694 13.7819 10.5694 13.5385C10.5694 13.212 10.449 12.899 10.2348 12.6682C10.0206 12.4374 9.73001 12.3077 9.42705 12.3077C9.20112 12.3077 8.98026 12.3799 8.79241 12.5151C8.60455 12.6504 8.45814 12.8426 8.37168 13.0675C8.28522 13.2924 8.2626 13.5398 8.30667 13.7786C8.35075 14.0173 8.45954 14.2366 8.6193 14.4087C8.77906 14.5809 8.9826 14.6981 9.20419 14.7456C9.42578 14.7931 9.65546 14.7687 9.8642 14.6755C10.0729 14.5824 10.2513 14.4246 10.3769 14.2222ZM13.4887 4.51512C13.3008 4.37988 13.08 4.30769 12.854 4.30769C12.5511 4.30769 12.2605 4.43736 12.0463 4.66818C11.832 4.89899 11.7117 5.21204 11.7117 5.53846C11.7117 5.78189 11.7787 6.01984 11.9042 6.22224C12.0297 6.42464 12.2081 6.58239 12.4169 6.67555C12.6256 6.7687 12.8553 6.79307 13.0769 6.74558C13.2985 6.69809 13.502 6.58087 13.6618 6.40875C13.8215 6.23662 13.9303 6.01732 13.9744 5.77857C14.0185 5.53983 13.9959 5.29236 13.9094 5.06747C13.8229 4.84258 13.6765 4.65036 13.4887 4.51512ZM2.19446 1.77776C2.06894 1.98016 2.00194 2.21812 2.00194 2.46154C2.00194 2.78796 2.12229 3.10101 2.33652 3.33183C2.55074 3.56264 2.8413 3.69231 3.14426 3.69231C3.37019 3.69231 3.59105 3.62013 3.7789 3.48489C3.96676 3.34965 4.11317 3.15743 4.19963 2.93254C4.28609 2.70764 4.30871 2.46018 4.26464 2.22143C4.22056 1.98268 4.11176 1.76338 3.95201 1.59126C3.79225 1.41913 3.58871 1.30191 3.36712 1.25442C3.14553 1.20693 2.91585 1.2313 2.70711 1.32446C2.49838 1.41761 2.31997 1.57536 2.19446 1.77776ZM2.76562 12.8547C2.6401 13.0571 2.5731 13.295 2.5731 13.5385C2.5731 13.8649 2.69345 14.1779 2.90768 14.4087C3.12191 14.6396 3.41246 14.7692 3.71542 14.7692C3.94136 14.7692 4.16221 14.697 4.35007 14.5618C4.53792 14.4266 4.68434 14.2343 4.7708 14.0095C4.85726 13.7846 4.87988 13.5371 4.8358 13.2983C4.79172 13.0596 4.68293 12.8403 4.52317 12.6682C4.36341 12.4961 4.15987 12.3788 3.93828 12.3313C3.71669 12.2839 3.48701 12.3082 3.27828 12.4014C3.06954 12.4945 2.89114 12.6523 2.76562 12.8547Z" fill="#54635B"/>
<ellipse cx="7.71875" cy="8.00195" rx="2.28516" ry="2.46289" fill="#7FB800"/>
</g>
<defs>
<clipPath id="clip0_771_1203">
<rect width="16" height="16" fill="white"/>
</clipPath>
</defs>
</svg>
