<svg width="16" height="16" viewBox="0 0 16 16" fill="none" xmlns="http://www.w3.org/2000/svg">
<g clip-path="url(#clip0_771_1210)">
<path fill-rule="evenodd" clip-rule="evenodd" d="M8.43501 1.32537C8.17764 1.18126 7.86388 1.18126 7.60651 1.32537L0.541285 5.2819C0.27353 5.43184 0.107706 5.71476 0.107706 6.02164C0.107706 6.32852 0.27353 6.61143 0.541285 6.76137L7.60651 10.7179C7.86388 10.862 8.17764 10.862 8.43501 10.7179L15.5003 6.76137C15.768 6.61143 15.9338 6.32852 15.9338 6.02164C15.9338 5.71476 15.768 5.43184 15.5003 5.2819L8.43501 1.32537ZM2.69074 6.02164L8.02076 9.00645L13.3508 6.02164L8.02076 3.03682L2.69074 6.02164Z" fill="#54635B"/>
<path d="M0.412931 9.67401C0.641723 9.26549 1.15837 9.11979 1.56689 9.34857L8.02075 12.963L14.4316 9.37235C14.8402 9.14355 15.3568 9.28923 15.5856 9.69775C15.8144 10.1063 15.6688 10.6229 15.2602 10.8518L8.43505 14.6743C8.17767 14.8185 7.86388 14.8186 7.60649 14.6743L0.738373 10.828C0.329841 10.5992 0.184135 10.0825 0.412931 9.67401Z" fill="#7FB800"/>
</g>
<defs>
<clipPath id="clip0_771_1210">
<rect width="16" height="16" fill="white"/>
</clipPath>
</defs>
</svg>
