<svg width="16" height="16" viewBox="0 0 16 16" fill="none" xmlns="http://www.w3.org/2000/svg">
<g clip-path="url(#clip0_704_721)">
<path d="M2.41321 12.8958C2.53738 12.8958 2.66156 12.8751 2.78366 12.8348L6.33603 11.6489L13.5784 4.40761C14.3337 3.65119 14.3337 2.41981 13.5784 1.6634L12.4815 0.566537C11.724 -0.188846 10.4947 -0.188846 9.73732 0.566537L2.49496 7.8089L1.31015 11.3644C1.17045 11.7845 1.27807 12.2419 1.5916 12.5544C1.81512 12.7768 2.11002 12.8958 2.41321 12.8958ZM10.652 1.48231C10.9024 1.22983 11.3153 1.22983 11.5657 1.48231L12.6636 2.5802C12.9161 2.83165 12.9161 3.24246 12.6636 3.4939L11.5616 4.59697L9.54899 2.58434L10.652 1.48231ZM3.62493 8.5084L8.63322 3.50011L10.6448 5.51171L5.63652 10.521L2.6181 11.5279L3.62493 8.5084Z" fill="#54635B"/>
<path d="M15.164 13.6086L13.3076 14.1757C12.5915 14.394 11.8258 14.4334 11.0963 14.2854L8.94192 13.8539C7.68053 13.6024 6.34878 13.7804 5.19708 14.3557C3.92224 14.9932 2.38458 14.7448 1.37567 13.7349L1.3229 13.6821L0.460938 14.6507C1.34567 15.5344 2.5222 16 3.71529 16C4.4148 16 5.11947 15.8406 5.77552 15.5116C6.67059 15.0646 7.70537 14.9249 8.6884 15.1225L10.8428 15.554C11.7844 15.7423 12.7675 15.6916 13.6853 15.4112L15.5417 14.8442L15.164 13.6086Z" fill="#7FB800"/>
</g>
<defs>
<clipPath id="clip0_704_721">
<rect width="16" height="16" fill="none"/>
</clipPath>
</defs>
</svg>
