<svg width="16" height="16" viewBox="0 0 16 16" fill="none" xmlns="http://www.w3.org/2000/svg">
<path d="M8.34202 5.001L13.808 10.466C13.8662 10.524 13.9124 10.5929 13.9439 10.6688C13.9754 10.7447 13.9915 10.826 13.9914 10.9082C13.9913 10.9904 13.975 11.0717 13.9433 11.1475C13.9117 11.2234 13.8653 11.2922 13.807 11.35C13.6893 11.4668 13.5303 11.5324 13.3645 11.5324C13.1987 11.5324 13.0396 11.4668 12.922 11.35L7.98902 6.416L3.05702 11.349C2.93865 11.4614 2.78108 11.5231 2.61788 11.521C2.45468 11.5189 2.29876 11.4531 2.18335 11.3377C2.06794 11.2223 2.00216 11.0663 2.00005 10.9031C1.99793 10.7399 2.05964 10.5824 2.17202 10.464L7.63802 5L8.34202 5.001Z" fill="#54635B"/>
</svg>
