<svg width="16" height="16" viewBox="0 0 16 16" fill="none" xmlns="http://www.w3.org/2000/svg">
<path d="M3 3.75C3 1.67879 4.67879 0 6.75 0C8.82121 0 10.5 1.67879 10.5 3.75V10.25C10.5 11.4922 9.49221 12.5 8.25 12.5C7.00779 12.5 6 11.4922 6 10.25V4.25C6 3.83579 6.33579 3.5 6.75 3.5C7.16421 3.5 7.5 3.83579 7.5 4.25V10.25C7.5 10.6638 7.83621 11 8.25 11C8.66379 11 9 10.6638 9 10.25V3.75C9 2.50721 7.99279 1.5 6.75 1.5C5.50721 1.5 4.5 2.50721 4.5 3.75V10.75C4.5 12.8208 6.17921 14.5 8.25 14.5C10.3208 14.5 12 12.8208 12 10.75V4.25C12 3.83579 12.3358 3.5 12.75 3.5C13.1642 3.5 13.5 3.83579 13.5 4.25V10.75C13.5 13.6492 11.1492 16 8.25 16C5.35079 16 3 13.6492 3 10.75V3.75Z" fill="#54635B"/>
</svg>
