<svg width="16" height="16" viewBox="0 0 16 16" fill="none" xmlns="http://www.w3.org/2000/svg">
<path d="M5.8614 13.5385C5.86155 12.995 5.69319 12.4671 5.38305 12.0385L6.66817 10.2615C6.9544 10.3948 7.26309 10.4629 7.57489 10.4615C7.62735 10.4628 7.67982 10.4602 7.73196 10.4538L8.0461 11.4769C7.58803 11.7996 7.25312 12.2892 7.10265 12.8561C6.95219 13.4231 6.99623 14.0294 7.22672 14.5642C7.45721 15.099 7.85874 15.5265 8.35782 15.7685C8.8569 16.0105 9.42016 16.0507 9.94453 15.8819C10.4689 15.713 10.9193 15.3464 11.2133 14.8491C11.5073 14.3517 11.6253 13.7569 11.5456 13.1736C11.466 12.5902 11.194 12.0572 10.7795 11.6722C10.365 11.2872 9.83566 11.0759 9.28838 11.0769C9.23592 11.0756 9.18344 11.0782 9.13131 11.0846L8.81717 10.0615C9.13696 9.83913 9.39992 9.53392 9.58201 9.17379C9.76411 8.81366 9.85952 8.4101 9.85954 8C9.8574 7.86362 9.84786 7.72749 9.83098 7.59231L10.9305 7.06923C11.1429 7.36017 11.414 7.59517 11.7233 7.75644C12.0325 7.91771 12.3718 8.001 12.7153 8C13.1672 8 13.6089 7.85563 13.9846 7.58516C14.3603 7.31468 14.6532 6.93024 14.8261 6.48045C14.999 6.03067 15.0443 5.53573 14.9561 5.05824C14.8679 4.58075 14.6504 4.14215 14.3308 3.79789C14.0113 3.45364 13.6042 3.2192 13.1611 3.12422C12.7179 3.02924 12.2585 3.07799 11.8411 3.2643C11.4236 3.45061 11.0668 3.76611 10.8157 4.17091C10.5647 4.5757 10.4307 5.05162 10.4307 5.53846C10.4328 5.67484 10.4424 5.81097 10.4593 5.94616L9.35977 6.46923C9.14734 6.1783 8.87623 5.94329 8.56698 5.78202C8.25773 5.62076 7.91846 5.53747 7.57489 5.53846C7.21266 5.53904 6.85562 5.63126 6.53252 5.80769L4.90471 3.83077C5.18805 3.37469 5.32181 2.82966 5.28471 2.28229C5.24762 1.73492 5.0418 1.2166 4.69997 0.809699C4.35814 0.402797 3.8999 0.130648 3.39806 0.0364952C2.89623 -0.0576575 2.37958 0.0315867 1.93021 0.290048C1.48085 0.548509 1.12454 0.96136 0.9179 1.463C0.711263 1.96465 0.666152 2.52631 0.789735 3.05874C0.913319 3.59117 1.19851 4.06383 1.59999 4.40162C2.00146 4.73941 2.4962 4.92295 3.00559 4.92308C3.36782 4.92251 3.72486 4.83029 4.04796 4.65385L5.67577 6.63077C5.40966 7.05895 5.27542 7.56654 5.29208 8.08154C5.30874 8.59654 5.47545 9.09282 5.76859 9.5L4.48347 11.2769C4.19725 11.1437 3.88855 11.0756 3.57675 11.0769C3.12489 11.0769 2.68318 11.2213 2.30747 11.4918C1.93176 11.7622 1.63893 12.1467 1.46601 12.5965C1.29309 13.0463 1.24785 13.5412 1.336 14.0187C1.42416 14.4962 1.64175 14.9348 1.96126 15.279C2.28078 15.6233 2.68786 15.8577 3.13104 15.9527C3.57422 16.0477 4.03358 15.9989 4.45105 15.8126C4.86851 15.6263 5.22533 15.3108 5.47637 14.906C5.72741 14.5012 5.8614 14.0253 5.8614 13.5385ZM10.4307 13.5385C10.4307 13.7819 10.3637 14.0198 10.2382 14.2222C10.1127 14.4246 9.93426 14.5824 9.72552 14.6755C9.51679 14.7687 9.28711 14.7931 9.06552 14.7456C8.84393 14.6981 8.64039 14.5809 8.48063 14.4087C8.32087 14.2366 8.21208 14.0173 8.168 13.7786C8.12392 13.5398 8.14655 13.2924 8.23301 13.0675C8.31946 12.8426 8.46588 12.6504 8.65373 12.5151C8.84159 12.3799 9.06245 12.3077 9.28838 12.3077C9.59134 12.3077 9.88189 12.4374 10.0961 12.6682C10.3103 12.899 10.4307 13.212 10.4307 13.5385V13.5385ZM12.7153 4.30769C12.9413 4.30769 13.1621 4.37988 13.35 4.51512C13.5378 4.65036 13.6843 4.84258 13.7707 5.06747C13.8572 5.29236 13.8798 5.53983 13.8357 5.77857C13.7916 6.01732 13.6829 6.23662 13.5231 6.40875C13.3633 6.58087 13.1598 6.69809 12.9382 6.74558C12.7166 6.79307 12.4869 6.7687 12.2782 6.67555C12.0695 6.58239 11.8911 6.42464 11.7655 6.22224C11.64 6.01984 11.573 5.78189 11.573 5.53846C11.573 5.21204 11.6934 4.89899 11.9076 4.66818C12.1218 4.43736 12.4124 4.30769 12.7153 4.30769ZM1.86327 2.46154C1.86327 2.21812 1.93026 1.98016 2.05578 1.77776C2.1813 1.57536 2.35971 1.41761 2.56844 1.32446C2.77717 1.2313 3.00686 1.20693 3.22845 1.25442C3.45004 1.30191 3.65358 1.41913 3.81334 1.59126C3.97309 1.76338 4.08189 1.98268 4.12597 2.22143C4.17004 2.46018 4.14742 2.70764 4.06096 2.93254C3.9745 3.15743 3.82809 3.34965 3.64023 3.48489C3.45238 3.62013 3.23152 3.69231 3.00559 3.69231C2.70263 3.69231 2.41207 3.56264 2.19785 3.33183C1.98362 3.10101 1.86327 2.78796 1.86327 2.46154ZM2.43443 13.5385C2.43443 13.295 2.50142 13.0571 2.62694 12.8547C2.75246 12.6523 2.93087 12.4945 3.1396 12.4014C3.34834 12.3082 3.57802 12.2839 3.79961 12.3313C4.0212 12.3788 4.22474 12.4961 4.3845 12.6682C4.54425 12.8403 4.65305 13.0596 4.69713 13.2984C4.7412 13.5371 4.71858 13.7846 4.63212 14.0095C4.54566 14.2344 4.39925 14.4266 4.21139 14.5618C4.02354 14.697 3.80268 14.7692 3.57675 14.7692C3.27379 14.7692 2.98323 14.6396 2.76901 14.4087C2.55478 14.1779 2.43443 13.8649 2.43443 13.5385Z" fill="black" />
</svg>
