<svg width="16" height="16" viewBox="0 0 16 16" fill="none" xmlns="http://www.w3.org/2000/svg">
<path d="M10.089 10.9779L13.934 14.8219C13.9918 14.8803 14.0605 14.9267 14.1364 14.9583C14.2122 14.99 14.2936 15.0062 14.3757 15.0061C14.4579 15.006 14.5392 14.9896 14.6149 14.9578C14.6907 14.926 14.7594 14.8795 14.817 14.8209C14.875 14.7628 14.921 14.6938 14.9523 14.6179C14.9836 14.5421 14.9997 14.4608 14.9996 14.3787C14.9995 14.2966 14.9833 14.2153 14.9518 14.1395C14.9203 14.0637 14.8741 13.9949 14.816 13.9369L10.983 10.1049L10.989 9.67787C11.489 8.97162 11.8152 8.15737 11.9413 7.3013C12.0674 6.44522 11.9897 5.57148 11.7145 4.75109C11.4394 3.9307 10.9745 3.1868 10.3578 2.57986C9.74104 1.97292 8.98979 1.52007 8.16509 1.2581C7.34039 0.996137 6.46551 0.932454 5.61157 1.07223C4.75763 1.212 3.94871 1.55129 3.25057 2.06252C2.55243 2.57375 1.98476 3.24249 1.59371 4.01438C1.20265 4.78628 0.999238 5.63956 1 6.50487C1 7.96356 1.57946 9.36251 2.61091 10.394C3.64236 11.4254 5.04131 12.0049 6.5 12.0049C7.689 12.0049 8.788 11.6249 9.687 10.9829L10.089 10.9779ZM6.5 10.7549C4.157 10.7549 2.25 8.84787 2.25 6.50487C2.25 4.16187 4.157 2.25487 6.5 2.25487C8.843 2.25487 10.75 4.16187 10.75 6.50487C10.75 8.84787 8.843 10.7549 6.5 10.7549Z" fill="#54635B"/>
</svg>
