<svg width="16" height="16" viewBox="0 0 16 16" fill="none" xmlns="http://www.w3.org/2000/svg">
<g clip-path="url(#clip0_771_1207)">
<path d="M2.25 3.00024C2.1837 3.00024 2.12011 3.02658 2.07322 3.07347C2.02634 3.12035 2 3.18394 2 3.25024V10.7502C2 10.8882 2.112 11.0002 2.25 11.0002H4.25C4.44891 11.0002 4.63968 11.0793 4.78033 11.2199C4.92098 11.3606 5 11.5513 5 11.7502V13.9402L7.72 11.2202C7.86052 11.0796 8.05115 11.0004 8.25 11.0002H12.75C12.8163 11.0002 12.8799 10.9739 12.9268 10.927C12.9737 10.8801 13 10.8165 13 10.7502V8.25024C13 8.05133 13.079 7.86057 13.2197 7.71991C13.3603 7.57926 13.5511 7.50024 13.75 7.50024C13.9489 7.50024 14.1397 7.57926 14.2803 7.71991C14.421 7.86057 14.5 8.05133 14.5 8.25024V10.7502C14.5 11.2144 14.3156 11.6595 13.9874 11.9877C13.6592 12.3159 13.2141 12.5002 12.75 12.5002H8.56L5.987 15.0732C5.78324 15.2769 5.52367 15.4156 5.24111 15.4718C4.95854 15.5279 4.66567 15.4991 4.3995 15.3889C4.13333 15.2786 3.90581 15.092 3.74571 14.8524C3.58561 14.6129 3.5001 14.3313 3.5 14.0432V12.5002H2.25C1.78587 12.5002 1.34075 12.3159 1.01256 11.9877C0.684374 11.6595 0.5 11.2144 0.5 10.7502V3.25024C0.5 2.28424 1.284 1.50024 2.25 1.50024H7.75C7.94891 1.50024 8.13968 1.57926 8.28033 1.71991C8.42098 1.86057 8.5 2.05133 8.5 2.25024C8.5 2.44916 8.42098 2.63992 8.28033 2.78057C8.13968 2.92123 7.94891 3.00024 7.75 3.00024H2.25Z" fill="#54635B"/>
<path d="M15.5 0.750245V4.89624C15.5001 4.94576 15.4855 4.99418 15.458 5.03537C15.4305 5.07657 15.3915 5.10868 15.3457 5.12764C15.3 5.1466 15.2497 5.15155 15.2011 5.14186C15.1525 5.13218 15.108 5.1083 15.073 5.07324L13.53 3.53024L9.78 7.28024C9.71134 7.35393 9.62854 7.41303 9.53654 7.45403C9.44454 7.49502 9.34523 7.51706 9.24452 7.51884C9.14382 7.52061 9.04379 7.50209 8.9504 7.46437C8.85701 7.42665 8.77218 7.3705 8.70096 7.29928C8.62974 7.22806 8.5736 7.14323 8.53588 7.04984C8.49816 6.95645 8.47963 6.85642 8.48141 6.75572C8.48318 6.65502 8.50523 6.55571 8.54622 6.46371C8.58721 6.37171 8.64631 6.28891 8.72 6.22024L12.47 2.47024L10.927 0.927245C10.8919 0.89228 10.8681 0.847694 10.8584 0.79914C10.8487 0.750586 10.8536 0.70025 10.8726 0.654513C10.8916 0.608776 10.9237 0.569699 10.9649 0.542234C11.0061 0.51477 11.0545 0.500156 11.104 0.500245H15.25C15.3163 0.500245 15.3799 0.526584 15.4268 0.573468C15.4737 0.620352 15.5 0.68394 15.5 0.750245Z" fill="#7FB800"/>
</g>
<defs>
<clipPath id="clip0_771_1207">
<rect width="16" height="16" fill="white"/>
</clipPath>
</defs>
</svg>
