<svg width="74" height="97" viewBox="0 0 74 97" fill="none" xmlns="http://www.w3.org/2000/svg">
<rect width="74" height="97" rx="12.1574" fill="#8BCC00"/>
<path d="M31.038 65.2885C31.0385 63.6411 30.5281 62.0408 29.588 60.7416L33.4835 55.3553C34.3512 55.7592 35.2869 55.9656 36.232 55.9615C36.3911 55.9654 36.5501 55.9576 36.7082 55.9382L37.6604 59.0394C36.2719 60.0175 35.2567 61.5016 34.8006 63.2201C34.3445 64.9386 34.478 66.7766 35.1767 68.3978C35.8753 70.0189 37.0925 71.3148 38.6053 72.0483C40.1181 72.7817 41.8255 72.9037 43.415 72.3919C45.0045 71.8801 46.3698 70.7687 47.261 69.2612C48.1523 67.7537 48.5099 65.9507 48.2684 64.1824C48.0269 62.414 47.2025 60.7985 45.946 59.6314C44.6895 58.4643 43.085 57.8238 41.426 57.8269C41.267 57.8231 41.108 57.8308 40.9499 57.8502L39.9977 54.749C40.9671 54.0749 41.7642 53.1497 42.3161 52.058C42.8681 50.9664 43.1573 49.7431 43.1574 48.5C43.1509 48.0866 43.122 47.674 43.0708 47.2642L46.4036 45.6786C47.0476 46.5605 47.8694 47.2729 48.8068 47.7617C49.7442 48.2506 50.7726 48.503 51.8141 48.5C53.1838 48.5 54.5227 48.0624 55.6616 47.2425C56.8004 46.4226 57.6881 45.2573 58.2122 43.8939C58.7364 42.5305 58.8736 41.0302 58.6063 39.5828C58.3391 38.1354 57.6795 36.8059 56.711 35.7624C55.7425 34.7188 54.5085 34.0082 53.1651 33.7203C51.8217 33.4324 50.4293 33.5802 49.1638 34.1449C47.8984 34.7097 46.8168 35.666 46.0559 36.8931C45.2949 38.1201 44.8887 39.5627 44.8887 41.0385C44.8952 41.4519 44.9241 41.8645 44.9753 42.2743L41.6425 43.8599C40.9985 42.978 40.1767 42.2656 39.2393 41.7768C38.3019 41.2879 37.2735 41.0354 36.232 41.0385C35.134 41.0402 34.0517 41.3197 33.0724 41.8546L28.138 35.862C28.9969 34.4795 29.4024 32.8274 29.2899 31.1682C29.1775 29.509 28.5536 27.9378 27.5174 26.7044C26.4813 25.471 25.0922 24.646 23.571 24.3606C22.0498 24.0752 20.4838 24.3457 19.1216 25.1292C17.7595 25.9127 16.6794 27.1641 16.053 28.6847C15.4267 30.2053 15.2899 31.9079 15.6645 33.5218C16.0392 35.1357 16.9036 36.5685 18.1206 37.5924C19.3376 38.6163 20.8373 39.1727 22.3814 39.1731C23.4794 39.1713 24.5616 38.8918 25.541 38.357L30.4753 44.3495C29.6687 45.6475 29.2618 47.1861 29.3123 48.7472C29.3628 50.3083 29.8681 51.8126 30.7567 53.0469L26.8612 58.4332C25.9936 58.0293 25.0578 57.8229 24.1127 57.8269C22.743 57.8269 21.404 58.2645 20.2652 59.0844C19.1263 59.9043 18.2387 61.0696 17.7145 62.4331C17.1903 63.7965 17.0532 65.2967 17.3204 66.7441C17.5876 68.1915 18.2472 69.521 19.2157 70.5646C20.1843 71.6081 21.4182 72.3187 22.7616 72.6066C24.105 72.8945 25.4975 72.7468 26.7629 72.182C28.0283 71.6173 29.1099 70.6609 29.8709 69.4339C30.6319 68.2068 31.038 66.7642 31.038 65.2885ZM44.8887 65.2885C44.8887 66.0263 44.6856 66.7476 44.3052 67.3612C43.9247 67.9747 43.3839 68.4529 42.7512 68.7352C42.1184 69.0176 41.4222 69.0915 40.7505 68.9475C40.0788 68.8036 39.4618 68.4483 38.9776 67.9265C38.4933 67.4048 38.1635 66.74 38.0299 66.0163C37.8963 65.2926 37.9649 64.5425 38.227 63.8608C38.489 63.179 38.9329 62.5964 39.5023 62.1864C40.0717 61.7765 40.7412 61.5577 41.426 61.5577C42.3444 61.5577 43.2251 61.9508 43.8745 62.6504C44.5239 63.3501 44.8887 64.299 44.8887 65.2885ZM51.8141 37.3077C52.4989 37.3077 53.1684 37.5265 53.7378 37.9364C54.3073 38.3464 54.7511 38.9291 55.0132 39.6108C55.2752 40.2925 55.3438 41.0426 55.2102 41.7663C55.0766 42.49 54.7468 43.1548 54.2625 43.6765C53.7783 44.1983 53.1613 44.5536 52.4896 44.6975C51.8179 44.8415 51.1217 44.7676 50.489 44.4852C49.8562 44.2029 49.3154 43.7247 48.935 43.1112C48.5545 42.4976 48.3514 41.7763 48.3514 41.0385C48.3514 40.049 48.7162 39.1001 49.3656 38.4004C50.015 37.7008 50.8957 37.3077 51.8141 37.3077ZM18.9187 31.7115C18.9187 30.9737 19.1218 30.2524 19.5023 29.6388C19.8827 29.0253 20.4235 28.5471 21.0562 28.2648C21.689 27.9824 22.3852 27.9085 23.0569 28.0525C23.7286 28.1964 24.3456 28.5517 24.8298 29.0735C25.3141 29.5953 25.6439 30.26 25.7775 30.9837C25.9111 31.7074 25.8425 32.4575 25.5804 33.1392C25.3184 33.821 24.8745 34.4036 24.3051 34.8136C23.7357 35.2235 23.0662 35.4423 22.3814 35.4423C21.463 35.4423 20.5823 35.0493 19.9329 34.3496C19.2835 33.6499 18.9187 32.701 18.9187 31.7115ZM20.65 65.2885C20.65 64.5506 20.8531 63.8293 21.2336 63.2158C21.6141 62.6022 22.1549 62.1241 22.7876 61.8417C23.4203 61.5593 24.1165 61.4854 24.7882 61.6294C25.4599 61.7733 26.0769 62.1287 26.5612 62.6504C27.0454 63.1722 27.3752 63.8369 27.5088 64.5606C27.6424 65.2843 27.5739 66.0345 27.3118 66.7162C27.0497 67.3979 26.6059 67.9805 26.0364 68.3905C25.467 68.8004 24.7975 69.0192 24.1127 69.0192C23.1943 69.0192 22.3136 68.6262 21.6642 67.9265C21.0148 67.2269 20.65 66.2779 20.65 65.2885Z" fill="#F3F9EF"/>
</svg>
