<svg width="74" height="97" viewBox="0 0 74 97" fill="none" xmlns="http://www.w3.org/2000/svg">
<path d="M63.4286 48.5L48.7343 33.5189L34.04 48.5V0H10.5714C7.76771 0 5.07883 1.13551 3.0963 3.15674C1.11377 5.17796 0 7.91933 0 10.7778V86.2222C0 89.0807 1.11377 91.822 3.0963 93.8433C5.07883 95.8645 7.76771 97 10.5714 97H63.4286C66.2323 97 68.9212 95.8645 70.9037 93.8433C72.8862 91.822 74 89.0807 74 86.2222V10.7778C74 7.91933 72.8862 5.17796 70.9037 3.15674C68.9212 1.13551 66.2323 0 63.4286 0V48.5Z" fill="#8BCC00"/>
</svg>
