<svg width="74" height="97" viewBox="0 0 74 97" fill="none" xmlns="http://www.w3.org/2000/svg">
<path d="M61.6667 0H12.3333C9.06233 0 5.9253 1.27745 3.61235 3.55133C1.2994 5.82521 0 8.90925 0 12.125V84.875C0 88.0908 1.2994 91.1748 3.61235 93.4487C5.9253 95.7225 9.06233 97 12.3333 97H61.6667C64.9377 97 68.0747 95.7225 70.3876 93.4487C72.7006 91.1748 74 88.0908 74 84.875V12.125C74 8.90925 72.7006 5.82521 70.3876 3.55133C68.0747 1.27745 64.9377 0 61.6667 0V0ZM18.5 24.25H55.5C56.3177 24.25 57.102 24.5694 57.6802 25.1378C58.2585 25.7063 58.5833 26.4773 58.5833 27.2812C58.5833 28.0852 58.2585 28.8562 57.6802 29.4247C57.102 29.9931 56.3177 30.3125 55.5 30.3125H18.5C17.6822 30.3125 16.898 29.9931 16.3198 29.4247C15.7415 28.8562 15.4167 28.0852 15.4167 27.2812C15.4167 26.4773 15.7415 25.7063 16.3198 25.1378C16.898 24.5694 17.6822 24.25 18.5 24.25ZM15.4167 39.4062C15.4167 38.6023 15.7415 37.8313 16.3198 37.2628C16.898 36.6944 17.6822 36.375 18.5 36.375H55.5C56.3177 36.375 57.102 36.6944 57.6802 37.2628C58.2585 37.8313 58.5833 38.6023 58.5833 39.4062C58.5833 40.2102 58.2585 40.9812 57.6802 41.5497C57.102 42.1181 56.3177 42.4375 55.5 42.4375H18.5C17.6822 42.4375 16.898 42.1181 16.3198 41.5497C15.7415 40.9812 15.4167 40.2102 15.4167 39.4062ZM18.5 48.5H55.5C56.3177 48.5 57.102 48.8194 57.6802 49.3878C58.2585 49.9563 58.5833 50.7273 58.5833 51.5312C58.5833 52.3352 58.2585 53.1062 57.6802 53.6747C57.102 54.2431 56.3177 54.5625 55.5 54.5625H18.5C17.6822 54.5625 16.898 54.2431 16.3198 53.6747C15.7415 53.1062 15.4167 52.3352 15.4167 51.5312C15.4167 50.7273 15.7415 49.9563 16.3198 49.3878C16.898 48.8194 17.6822 48.5 18.5 48.5ZM18.5 60.625H37C37.8177 60.625 38.602 60.9444 39.1802 61.5128C39.7585 62.0813 40.0833 62.8523 40.0833 63.6562C40.0833 64.4602 39.7585 65.2312 39.1802 65.7997C38.602 66.3681 37.8177 66.6875 37 66.6875H18.5C17.6822 66.6875 16.898 66.3681 16.3198 65.7997C15.7415 65.2312 15.4167 64.4602 15.4167 63.6562C15.4167 62.8523 15.7415 62.0813 16.3198 61.5128C16.898 60.9444 17.6822 60.625 18.5 60.625Z" fill="#8BCC00"/>
</svg>
