<svg width="74" height="97" viewBox="0 0 74 97" fill="none" xmlns="http://www.w3.org/2000/svg">
<path d="M71.2712 26.2385L48.9325 2.813C47.2212 1.0185 44.8625 0 42.4113 0H9.25C4.1625 0 0.0462511 4.365 0.0462511 9.7L0 87.3C0 92.635 4.11625 97 9.20375 97H64.75C69.8375 97 74 92.635 74 87.3V33.1255C74 30.555 73.0287 28.0815 71.2712 26.2385ZM49.95 63.05H41.625V77.6C41.625 80.2675 39.5438 82.45 37 82.45C34.4562 82.45 32.375 80.2675 32.375 77.6V63.05H24.0963C22.015 63.05 20.9975 60.431 22.4775 58.9275L35.4275 45.396C36.3525 44.4745 37.7863 44.4745 38.7113 45.396L51.615 58.9275C53.0025 60.431 51.985 63.05 49.95 63.05ZM46.25 33.95C43.7062 33.95 41.625 31.7675 41.625 29.1V7.275L67.0625 33.95H46.25Z" fill="#8BCC00"/>
</svg>
