<svg width="318" height="318" viewBox="0 0 318 318" fill="none" xmlns="http://www.w3.org/2000/svg">
<rect width="318" height="318" rx="4" fill="#F3F9EF"/>
<path d="M217.333 142.787L204.32 157.613L206.133 177.24L186.88 181.613L176.8 198.573L158.667 190.787L140.533 198.627L130.453 181.667L111.2 177.293L113.013 157.613L100 142.787L113.013 127.907L111.2 108.28L130.453 103.96L140.533 87L158.667 94.7867L176.8 87L186.88 103.96L206.133 108.333L204.32 127.96L217.333 142.787ZM203.093 142.787L193.333 131.533L194.613 116.653L180 113.453L172.427 100.493L158.667 106.413L144.907 100.493L137.333 113.453L122.72 116.6L124 131.48L114.24 142.787L124 153.987L122.72 168.92L137.333 172.12L144.907 185.08L158.667 179.107L172.427 185.027L180 172.12L194.613 168.867L193.333 153.987L203.093 142.787M153.333 158.787H164V169.453H153.333V158.787ZM153.333 116.12H164V148.12H153.333V116.12Z" fill="#F78464"/>
<path d="M36.3496 227.373L33.376 236H31.5781L35.3242 226.047H36.4727L36.3496 227.373ZM38.8379 236L35.8574 227.373L35.7275 226.047H36.8828L40.6426 236H38.8379ZM38.6943 232.309V233.669H33.2803V232.309H38.6943ZM43.1035 230.183V236H41.4561V228.604H43.0078L43.1035 230.183ZM42.8096 232.028L42.2764 232.021C42.2809 231.497 42.3538 231.017 42.4951 230.579C42.641 230.142 42.8415 229.766 43.0967 229.451C43.3564 229.137 43.6663 228.895 44.0264 228.727C44.3864 228.553 44.7874 228.467 45.2295 228.467C45.585 228.467 45.9062 228.517 46.1934 228.617C46.485 228.713 46.7334 228.87 46.9385 229.089C47.1481 229.308 47.3076 229.592 47.417 229.943C47.5264 230.29 47.5811 230.716 47.5811 231.222V236H45.9268V231.215C45.9268 230.859 45.8743 230.579 45.7695 230.374C45.6693 230.164 45.5212 230.016 45.3252 229.93C45.1338 229.839 44.8945 229.793 44.6074 229.793C44.3249 229.793 44.0719 229.852 43.8486 229.971C43.6253 230.089 43.4362 230.251 43.2812 230.456C43.1309 230.661 43.0146 230.898 42.9326 231.167C42.8506 231.436 42.8096 231.723 42.8096 232.028ZM56.0098 236.137C55.4629 236.137 54.9684 236.048 54.5264 235.87C54.0889 235.688 53.7152 235.435 53.4053 235.111C53.0999 234.788 52.8652 234.407 52.7012 233.97C52.5371 233.532 52.4551 233.061 52.4551 232.555V232.281C52.4551 231.702 52.5394 231.178 52.708 230.709C52.8766 230.24 53.1113 229.839 53.4121 229.506C53.7129 229.169 54.0684 228.911 54.4785 228.733C54.8887 228.556 55.333 228.467 55.8115 228.467C56.3402 228.467 56.8027 228.556 57.1992 228.733C57.5957 228.911 57.9238 229.162 58.1836 229.485C58.4479 229.804 58.6439 230.185 58.7715 230.627C58.9036 231.069 58.9697 231.557 58.9697 232.09V232.794H53.2549V231.611H57.3428V231.481C57.3337 231.185 57.2744 230.907 57.165 230.647C57.0602 230.388 56.8984 230.178 56.6797 230.019C56.4609 229.859 56.1693 229.779 55.8047 229.779C55.5312 229.779 55.2874 229.839 55.0732 229.957C54.8636 230.071 54.6882 230.237 54.5469 230.456C54.4056 230.675 54.2962 230.939 54.2188 231.249C54.1458 231.554 54.1094 231.898 54.1094 232.281V232.555C54.1094 232.878 54.1527 233.179 54.2393 233.457C54.3304 233.73 54.4626 233.97 54.6357 234.175C54.8089 234.38 55.0186 234.542 55.2646 234.66C55.5107 234.774 55.791 234.831 56.1055 234.831C56.502 234.831 56.8551 234.751 57.165 234.592C57.4749 234.432 57.7438 234.207 57.9717 233.915L58.8398 234.756C58.6803 234.988 58.473 235.212 58.2178 235.426C57.9626 235.635 57.6504 235.806 57.2812 235.938C56.9167 236.071 56.4928 236.137 56.0098 236.137ZM61.9092 230.012V236H60.2617V228.604H61.834L61.9092 230.012ZM64.1719 228.556L64.1582 230.087C64.0579 230.069 63.9486 230.055 63.8301 230.046C63.7161 230.037 63.6022 230.032 63.4883 230.032C63.2057 230.032 62.9574 230.073 62.7432 230.155C62.529 230.233 62.349 230.347 62.2031 230.497C62.0618 230.643 61.9525 230.821 61.875 231.03C61.7975 231.24 61.752 231.475 61.7383 231.734L61.3623 231.762C61.3623 231.297 61.4079 230.866 61.499 230.47C61.5902 230.073 61.7269 229.725 61.9092 229.424C62.096 229.123 62.3285 228.888 62.6064 228.72C62.889 228.551 63.2148 228.467 63.584 228.467C63.6842 228.467 63.7913 228.476 63.9053 228.494C64.0238 228.512 64.1126 228.533 64.1719 228.556ZM66.8584 230.012V236H65.2109V228.604H66.7832L66.8584 230.012ZM69.1211 228.556L69.1074 230.087C69.0072 230.069 68.8978 230.055 68.7793 230.046C68.6654 230.037 68.5514 230.032 68.4375 230.032C68.1549 230.032 67.9066 230.073 67.6924 230.155C67.4782 230.233 67.2982 230.347 67.1523 230.497C67.0111 230.643 66.9017 230.821 66.8242 231.03C66.7467 231.24 66.7012 231.475 66.6875 231.734L66.3115 231.762C66.3115 231.297 66.3571 230.866 66.4482 230.47C66.5394 230.073 66.6761 229.725 66.8584 229.424C67.0452 229.123 67.2777 228.888 67.5557 228.72C67.8382 228.551 68.1641 228.467 68.5332 228.467C68.6335 228.467 68.7406 228.476 68.8545 228.494C68.973 228.512 69.0618 228.533 69.1211 228.556ZM69.6611 232.384V232.227C69.6611 231.693 69.7386 231.199 69.8936 230.743C70.0485 230.283 70.2718 229.884 70.5635 229.547C70.8597 229.205 71.2197 228.941 71.6436 228.754C72.0719 228.562 72.555 228.467 73.0928 228.467C73.6351 228.467 74.1182 228.562 74.542 228.754C74.9704 228.941 75.3327 229.205 75.6289 229.547C75.9251 229.884 76.1507 230.283 76.3057 230.743C76.4606 231.199 76.5381 231.693 76.5381 232.227V232.384C76.5381 232.917 76.4606 233.411 76.3057 233.867C76.1507 234.323 75.9251 234.722 75.6289 235.063C75.3327 235.401 74.9727 235.665 74.5488 235.856C74.125 236.043 73.6442 236.137 73.1064 236.137C72.5641 236.137 72.0788 236.043 71.6504 235.856C71.2266 235.665 70.8665 235.401 70.5703 235.063C70.2741 234.722 70.0485 234.323 69.8936 233.867C69.7386 233.411 69.6611 232.917 69.6611 232.384ZM71.3086 232.227V232.384C71.3086 232.716 71.3428 233.031 71.4111 233.327C71.4795 233.623 71.5866 233.883 71.7324 234.106C71.8783 234.33 72.0651 234.505 72.293 234.633C72.5208 234.76 72.792 234.824 73.1064 234.824C73.4118 234.824 73.6761 234.76 73.8994 234.633C74.1273 234.505 74.3141 234.33 74.46 234.106C74.6058 233.883 74.7129 233.623 74.7812 233.327C74.8542 233.031 74.8906 232.716 74.8906 232.384V232.227C74.8906 231.898 74.8542 231.589 74.7812 231.297C74.7129 231.001 74.6035 230.739 74.4531 230.511C74.3073 230.283 74.1204 230.105 73.8926 229.978C73.6693 229.845 73.4027 229.779 73.0928 229.779C72.7829 229.779 72.514 229.845 72.2861 229.978C72.0628 230.105 71.8783 230.283 71.7324 230.511C71.5866 230.739 71.4795 231.001 71.4111 231.297C71.3428 231.589 71.3086 231.898 71.3086 232.227ZM79.5732 230.012V236H77.9258V228.604H79.498L79.5732 230.012ZM81.8359 228.556L81.8223 230.087C81.722 230.069 81.6126 230.055 81.4941 230.046C81.3802 230.037 81.2663 230.032 81.1523 230.032C80.8698 230.032 80.6214 230.073 80.4072 230.155C80.193 230.233 80.013 230.347 79.8672 230.497C79.7259 230.643 79.6165 230.821 79.5391 231.03C79.4616 231.24 79.416 231.475 79.4023 231.734L79.0264 231.762C79.0264 231.297 79.0719 230.866 79.1631 230.47C79.2542 230.073 79.391 229.725 79.5732 229.424C79.7601 229.123 79.9925 228.888 80.2705 228.72C80.5531 228.551 80.8789 228.467 81.248 228.467C81.3483 228.467 81.4554 228.476 81.5693 228.494C81.6878 228.512 81.7767 228.533 81.8359 228.556ZM86.04 232.384V232.227C86.04 231.693 86.1175 231.199 86.2725 230.743C86.4274 230.283 86.6507 229.884 86.9424 229.547C87.2386 229.205 87.5986 228.941 88.0225 228.754C88.4508 228.562 88.9339 228.467 89.4717 228.467C90.014 228.467 90.4971 228.562 90.9209 228.754C91.3493 228.941 91.7116 229.205 92.0078 229.547C92.304 229.884 92.5296 230.283 92.6846 230.743C92.8395 231.199 92.917 231.693 92.917 232.227V232.384C92.917 232.917 92.8395 233.411 92.6846 233.867C92.5296 234.323 92.304 234.722 92.0078 235.063C91.7116 235.401 91.3516 235.665 90.9277 235.856C90.5039 236.043 90.0231 236.137 89.4854 236.137C88.943 236.137 88.4577 236.043 88.0293 235.856C87.6055 235.665 87.2454 235.401 86.9492 235.063C86.653 234.722 86.4274 234.323 86.2725 233.867C86.1175 233.411 86.04 232.917 86.04 232.384ZM87.6875 232.227V232.384C87.6875 232.716 87.7217 233.031 87.79 233.327C87.8584 233.623 87.9655 233.883 88.1113 234.106C88.2572 234.33 88.444 234.505 88.6719 234.633C88.8997 234.76 89.1709 234.824 89.4854 234.824C89.7907 234.824 90.055 234.76 90.2783 234.633C90.5062 234.505 90.693 234.33 90.8389 234.106C90.9847 233.883 91.0918 233.623 91.1602 233.327C91.2331 233.031 91.2695 232.716 91.2695 232.384V232.227C91.2695 231.898 91.2331 231.589 91.1602 231.297C91.0918 231.001 90.9824 230.739 90.832 230.511C90.6862 230.283 90.4993 230.105 90.2715 229.978C90.0482 229.845 89.7816 229.779 89.4717 229.779C89.1618 229.779 88.8929 229.845 88.665 229.978C88.4417 230.105 88.2572 230.283 88.1113 230.511C87.9655 230.739 87.8584 231.001 87.79 231.297C87.7217 231.589 87.6875 231.898 87.6875 232.227ZM97.3193 234.824C97.5882 234.824 97.8298 234.772 98.0439 234.667C98.2627 234.558 98.4382 234.407 98.5703 234.216C98.707 234.024 98.7822 233.803 98.7959 233.553H100.348C100.339 234.031 100.197 234.466 99.9238 234.858C99.6504 235.25 99.2881 235.562 98.8369 235.795C98.3857 236.023 97.8867 236.137 97.3398 236.137C96.7747 236.137 96.2826 236.041 95.8633 235.85C95.444 235.654 95.0954 235.385 94.8174 235.043C94.5394 234.701 94.3298 234.307 94.1885 233.86C94.0518 233.414 93.9834 232.935 93.9834 232.425V232.186C93.9834 231.675 94.0518 231.197 94.1885 230.75C94.3298 230.299 94.5394 229.902 94.8174 229.561C95.0954 229.219 95.444 228.952 95.8633 228.761C96.2826 228.565 96.7725 228.467 97.333 228.467C97.9255 228.467 98.445 228.585 98.8916 228.822C99.3382 229.055 99.6891 229.381 99.9443 229.8C100.204 230.215 100.339 230.698 100.348 231.249H98.7959C98.7822 230.976 98.7139 230.729 98.5908 230.511C98.4723 230.287 98.3037 230.11 98.085 229.978C97.8708 229.845 97.6133 229.779 97.3125 229.779C96.9798 229.779 96.7041 229.848 96.4854 229.984C96.2666 230.117 96.0957 230.299 95.9727 230.531C95.8496 230.759 95.7607 231.017 95.7061 231.304C95.6559 231.586 95.6309 231.88 95.6309 232.186V232.425C95.6309 232.73 95.6559 233.026 95.7061 233.313C95.7562 233.601 95.8428 233.858 95.9658 234.086C96.0934 234.309 96.2666 234.489 96.4854 234.626C96.7041 234.758 96.9821 234.824 97.3193 234.824ZM104.634 234.824C104.903 234.824 105.144 234.772 105.358 234.667C105.577 234.558 105.753 234.407 105.885 234.216C106.021 234.024 106.097 233.803 106.11 233.553H107.662C107.653 234.031 107.512 234.466 107.238 234.858C106.965 235.25 106.603 235.562 106.151 235.795C105.7 236.023 105.201 236.137 104.654 236.137C104.089 236.137 103.597 236.041 103.178 235.85C102.758 235.654 102.41 235.385 102.132 235.043C101.854 234.701 101.644 234.307 101.503 233.86C101.366 233.414 101.298 232.935 101.298 232.425V232.186C101.298 231.675 101.366 231.197 101.503 230.75C101.644 230.299 101.854 229.902 102.132 229.561C102.41 229.219 102.758 228.952 103.178 228.761C103.597 228.565 104.087 228.467 104.647 228.467C105.24 228.467 105.759 228.585 106.206 228.822C106.653 229.055 107.004 229.381 107.259 229.8C107.519 230.215 107.653 230.698 107.662 231.249H106.11C106.097 230.976 106.028 230.729 105.905 230.511C105.787 230.287 105.618 230.11 105.399 229.978C105.185 229.845 104.928 229.779 104.627 229.779C104.294 229.779 104.019 229.848 103.8 229.984C103.581 230.117 103.41 230.299 103.287 230.531C103.164 230.759 103.075 231.017 103.021 231.304C102.97 231.586 102.945 231.88 102.945 232.186V232.425C102.945 232.73 102.97 233.026 103.021 233.313C103.071 233.601 103.157 233.858 103.28 234.086C103.408 234.309 103.581 234.489 103.8 234.626C104.019 234.758 104.297 234.824 104.634 234.824ZM113.377 234.257V228.604H115.031V236H113.473L113.377 234.257ZM113.609 232.719L114.163 232.705C114.163 233.202 114.108 233.66 113.999 234.079C113.89 234.494 113.721 234.856 113.493 235.166C113.265 235.471 112.974 235.711 112.618 235.884C112.263 236.052 111.837 236.137 111.34 236.137C110.98 236.137 110.649 236.084 110.349 235.979C110.048 235.875 109.788 235.713 109.569 235.494C109.355 235.275 109.189 234.991 109.07 234.64C108.952 234.289 108.893 233.869 108.893 233.382V228.604H110.54V233.396C110.54 233.664 110.572 233.89 110.636 234.072C110.7 234.25 110.786 234.394 110.896 234.503C111.005 234.612 111.132 234.69 111.278 234.735C111.424 234.781 111.579 234.804 111.743 234.804C112.213 234.804 112.582 234.713 112.851 234.53C113.124 234.343 113.318 234.093 113.432 233.778C113.55 233.464 113.609 233.111 113.609 232.719ZM118.374 230.012V236H116.727V228.604H118.299L118.374 230.012ZM120.637 228.556L120.623 230.087C120.523 230.069 120.413 230.055 120.295 230.046C120.181 230.037 120.067 230.032 119.953 230.032C119.671 230.032 119.422 230.073 119.208 230.155C118.994 230.233 118.814 230.347 118.668 230.497C118.527 230.643 118.417 230.821 118.34 231.03C118.262 231.24 118.217 231.475 118.203 231.734L117.827 231.762C117.827 231.297 117.873 230.866 117.964 230.47C118.055 230.073 118.192 229.725 118.374 229.424C118.561 229.123 118.793 228.888 119.071 228.72C119.354 228.551 119.68 228.467 120.049 228.467C120.149 228.467 120.256 228.476 120.37 228.494C120.489 228.512 120.577 228.533 120.637 228.556ZM123.323 230.012V236H121.676V228.604H123.248L123.323 230.012ZM125.586 228.556L125.572 230.087C125.472 230.069 125.363 230.055 125.244 230.046C125.13 230.037 125.016 230.032 124.902 230.032C124.62 230.032 124.371 230.073 124.157 230.155C123.943 230.233 123.763 230.347 123.617 230.497C123.476 230.643 123.367 230.821 123.289 231.03C123.212 231.24 123.166 231.475 123.152 231.734L122.776 231.762C122.776 231.297 122.822 230.866 122.913 230.47C123.004 230.073 123.141 229.725 123.323 229.424C123.51 229.123 123.743 228.888 124.021 228.72C124.303 228.551 124.629 228.467 124.998 228.467C125.098 228.467 125.205 228.476 125.319 228.494C125.438 228.512 125.527 228.533 125.586 228.556ZM129.742 236.137C129.195 236.137 128.701 236.048 128.259 235.87C127.821 235.688 127.448 235.435 127.138 235.111C126.832 234.788 126.598 234.407 126.434 233.97C126.27 233.532 126.188 233.061 126.188 232.555V232.281C126.188 231.702 126.272 231.178 126.44 230.709C126.609 230.24 126.844 229.839 127.145 229.506C127.445 229.169 127.801 228.911 128.211 228.733C128.621 228.556 129.065 228.467 129.544 228.467C130.073 228.467 130.535 228.556 130.932 228.733C131.328 228.911 131.656 229.162 131.916 229.485C132.18 229.804 132.376 230.185 132.504 230.627C132.636 231.069 132.702 231.557 132.702 232.09V232.794H126.987V231.611H131.075V231.481C131.066 231.185 131.007 230.907 130.897 230.647C130.793 230.388 130.631 230.178 130.412 230.019C130.193 229.859 129.902 229.779 129.537 229.779C129.264 229.779 129.02 229.839 128.806 229.957C128.596 230.071 128.421 230.237 128.279 230.456C128.138 230.675 128.029 230.939 127.951 231.249C127.878 231.554 127.842 231.898 127.842 232.281V232.555C127.842 232.878 127.885 233.179 127.972 233.457C128.063 233.73 128.195 233.97 128.368 234.175C128.541 234.38 128.751 234.542 128.997 234.66C129.243 234.774 129.523 234.831 129.838 234.831C130.234 234.831 130.588 234.751 130.897 234.592C131.207 234.432 131.476 234.207 131.704 233.915L132.572 234.756C132.413 234.988 132.205 235.212 131.95 235.426C131.695 235.635 131.383 235.806 131.014 235.938C130.649 236.071 130.225 236.137 129.742 236.137ZM138.499 234.469V225.5H140.153V236H138.656L138.499 234.469ZM133.687 232.384V232.24C133.687 231.68 133.753 231.169 133.885 230.709C134.017 230.244 134.208 229.845 134.459 229.513C134.71 229.175 135.015 228.918 135.375 228.74C135.735 228.558 136.141 228.467 136.592 228.467C137.038 228.467 137.43 228.553 137.768 228.727C138.105 228.9 138.392 229.148 138.629 229.472C138.866 229.791 139.055 230.174 139.196 230.62C139.338 231.062 139.438 231.554 139.497 232.097V232.555C139.438 233.083 139.338 233.566 139.196 234.004C139.055 234.441 138.866 234.82 138.629 235.139C138.392 235.458 138.103 235.704 137.761 235.877C137.424 236.05 137.029 236.137 136.578 236.137C136.132 236.137 135.728 236.043 135.368 235.856C135.013 235.67 134.71 235.408 134.459 235.07C134.208 234.733 134.017 234.337 133.885 233.881C133.753 233.421 133.687 232.922 133.687 232.384ZM135.334 232.24V232.384C135.334 232.721 135.364 233.035 135.423 233.327C135.487 233.619 135.585 233.876 135.717 234.1C135.849 234.318 136.02 234.492 136.229 234.619C136.444 234.742 136.699 234.804 136.995 234.804C137.369 234.804 137.676 234.722 137.918 234.558C138.16 234.394 138.349 234.173 138.485 233.895C138.627 233.612 138.722 233.298 138.772 232.951V231.714C138.745 231.445 138.688 231.194 138.602 230.962C138.52 230.729 138.408 230.527 138.267 230.354C138.125 230.176 137.95 230.039 137.74 229.943C137.535 229.843 137.291 229.793 137.009 229.793C136.708 229.793 136.453 229.857 136.243 229.984C136.034 230.112 135.86 230.287 135.724 230.511C135.591 230.734 135.493 230.994 135.43 231.29C135.366 231.586 135.334 231.903 135.334 232.24ZM147.372 234.359L149.081 228.604H150.134L149.847 230.326L148.124 236H147.181L147.372 234.359ZM146.367 228.604L147.7 234.387L147.81 236H146.757L144.754 228.604H146.367ZM151.733 234.318L153.025 228.604H154.632L152.636 236H151.583L151.733 234.318ZM150.312 228.604L152 234.291L152.212 236H151.269L149.525 230.319L149.238 228.604H150.312ZM157.38 225.5V236H155.739V225.5H157.38ZM157.093 232.028L156.56 232.021C156.564 231.511 156.635 231.039 156.771 230.606C156.913 230.174 157.109 229.798 157.359 229.479C157.615 229.155 157.92 228.907 158.275 228.733C158.631 228.556 159.025 228.467 159.458 228.467C159.823 228.467 160.151 228.517 160.442 228.617C160.739 228.717 160.994 228.879 161.208 229.103C161.422 229.321 161.584 229.608 161.693 229.964C161.807 230.315 161.864 230.743 161.864 231.249V236H160.21V231.235C160.21 230.88 160.158 230.597 160.053 230.388C159.952 230.178 159.804 230.028 159.608 229.937C159.412 229.841 159.173 229.793 158.891 229.793C158.594 229.793 158.332 229.852 158.104 229.971C157.881 230.089 157.694 230.251 157.544 230.456C157.394 230.661 157.28 230.898 157.202 231.167C157.129 231.436 157.093 231.723 157.093 232.028ZM165.296 228.604V236H163.642V228.604H165.296ZM163.532 226.662C163.532 226.411 163.614 226.204 163.778 226.04C163.947 225.871 164.179 225.787 164.476 225.787C164.767 225.787 164.997 225.871 165.166 226.04C165.335 226.204 165.419 226.411 165.419 226.662C165.419 226.908 165.335 227.113 165.166 227.277C164.997 227.441 164.767 227.523 164.476 227.523C164.179 227.523 163.947 227.441 163.778 227.277C163.614 227.113 163.532 226.908 163.532 226.662ZM168.864 225.5V236H167.21V225.5H168.864ZM173.93 236.137C173.383 236.137 172.888 236.048 172.446 235.87C172.009 235.688 171.635 235.435 171.325 235.111C171.02 234.788 170.785 234.407 170.621 233.97C170.457 233.532 170.375 233.061 170.375 232.555V232.281C170.375 231.702 170.459 231.178 170.628 230.709C170.797 230.24 171.031 229.839 171.332 229.506C171.633 229.169 171.988 228.911 172.398 228.733C172.809 228.556 173.253 228.467 173.731 228.467C174.26 228.467 174.723 228.556 175.119 228.733C175.516 228.911 175.844 229.162 176.104 229.485C176.368 229.804 176.564 230.185 176.691 230.627C176.824 231.069 176.89 231.557 176.89 232.09V232.794H171.175V231.611H175.263V231.481C175.254 231.185 175.194 230.907 175.085 230.647C174.98 230.388 174.818 230.178 174.6 230.019C174.381 229.859 174.089 229.779 173.725 229.779C173.451 229.779 173.207 229.839 172.993 229.957C172.784 230.071 172.608 230.237 172.467 230.456C172.326 230.675 172.216 230.939 172.139 231.249C172.066 231.554 172.029 231.898 172.029 232.281V232.555C172.029 232.878 172.073 233.179 172.159 233.457C172.25 233.73 172.382 233.97 172.556 234.175C172.729 234.38 172.938 234.542 173.185 234.66C173.431 234.774 173.711 234.831 174.025 234.831C174.422 234.831 174.775 234.751 175.085 234.592C175.395 234.432 175.664 234.207 175.892 233.915L176.76 234.756C176.6 234.988 176.393 235.212 176.138 235.426C175.882 235.635 175.57 235.806 175.201 235.938C174.837 236.071 174.413 236.137 173.93 236.137ZM183.425 225.5V236H181.771V225.5H183.425ZM184.915 232.384V232.227C184.915 231.693 184.993 231.199 185.147 230.743C185.302 230.283 185.526 229.884 185.817 229.547C186.114 229.205 186.474 228.941 186.897 228.754C187.326 228.562 187.809 228.467 188.347 228.467C188.889 228.467 189.372 228.562 189.796 228.754C190.224 228.941 190.587 229.205 190.883 229.547C191.179 229.884 191.405 230.283 191.56 230.743C191.715 231.199 191.792 231.693 191.792 232.227V232.384C191.792 232.917 191.715 233.411 191.56 233.867C191.405 234.323 191.179 234.722 190.883 235.063C190.587 235.401 190.227 235.665 189.803 235.856C189.379 236.043 188.898 236.137 188.36 236.137C187.818 236.137 187.333 236.043 186.904 235.856C186.48 235.665 186.12 235.401 185.824 235.063C185.528 234.722 185.302 234.323 185.147 233.867C184.993 233.411 184.915 232.917 184.915 232.384ZM186.562 232.227V232.384C186.562 232.716 186.597 233.031 186.665 233.327C186.733 233.623 186.84 233.883 186.986 234.106C187.132 234.33 187.319 234.505 187.547 234.633C187.775 234.76 188.046 234.824 188.36 234.824C188.666 234.824 188.93 234.76 189.153 234.633C189.381 234.505 189.568 234.33 189.714 234.106C189.86 233.883 189.967 233.623 190.035 233.327C190.108 233.031 190.145 232.716 190.145 232.384V232.227C190.145 231.898 190.108 231.589 190.035 231.297C189.967 231.001 189.857 230.739 189.707 230.511C189.561 230.283 189.374 230.105 189.146 229.978C188.923 229.845 188.657 229.779 188.347 229.779C188.037 229.779 187.768 229.845 187.54 229.978C187.317 230.105 187.132 230.283 186.986 230.511C186.84 230.739 186.733 231.001 186.665 231.297C186.597 231.589 186.562 231.898 186.562 232.227ZM197.343 234.517V230.989C197.343 230.725 197.295 230.497 197.199 230.306C197.104 230.114 196.958 229.966 196.762 229.861C196.57 229.757 196.329 229.704 196.037 229.704C195.768 229.704 195.536 229.75 195.34 229.841C195.144 229.932 194.991 230.055 194.882 230.21C194.772 230.365 194.718 230.54 194.718 230.736H193.077C193.077 230.445 193.148 230.162 193.289 229.889C193.43 229.615 193.635 229.371 193.904 229.157C194.173 228.943 194.494 228.774 194.868 228.651C195.242 228.528 195.661 228.467 196.126 228.467C196.682 228.467 197.174 228.56 197.603 228.747C198.035 228.934 198.375 229.216 198.621 229.595C198.872 229.968 198.997 230.438 198.997 231.003V234.291C198.997 234.628 199.02 234.931 199.065 235.2C199.116 235.465 199.186 235.695 199.277 235.891V236H197.589C197.511 235.822 197.45 235.597 197.404 235.323C197.363 235.045 197.343 234.776 197.343 234.517ZM197.582 231.502L197.596 232.521H196.413C196.108 232.521 195.839 232.55 195.606 232.609C195.374 232.664 195.18 232.746 195.025 232.855C194.87 232.965 194.754 233.097 194.677 233.252C194.599 233.407 194.561 233.582 194.561 233.778C194.561 233.974 194.606 234.154 194.697 234.318C194.788 234.478 194.921 234.603 195.094 234.694C195.271 234.785 195.486 234.831 195.736 234.831C196.074 234.831 196.368 234.763 196.618 234.626C196.873 234.485 197.074 234.314 197.22 234.113C197.366 233.908 197.443 233.715 197.452 233.532L197.985 234.264C197.931 234.451 197.837 234.651 197.705 234.865C197.573 235.079 197.4 235.285 197.186 235.48C196.976 235.672 196.723 235.829 196.427 235.952C196.135 236.075 195.798 236.137 195.415 236.137C194.932 236.137 194.501 236.041 194.123 235.85C193.745 235.654 193.449 235.392 193.234 235.063C193.02 234.731 192.913 234.355 192.913 233.936C192.913 233.544 192.986 233.197 193.132 232.896C193.282 232.591 193.501 232.336 193.788 232.131C194.08 231.926 194.435 231.771 194.854 231.666C195.274 231.557 195.752 231.502 196.29 231.502H197.582ZM205.231 234.469V225.5H206.886V236H205.389L205.231 234.469ZM200.419 232.384V232.24C200.419 231.68 200.485 231.169 200.617 230.709C200.749 230.244 200.941 229.845 201.191 229.513C201.442 229.175 201.747 228.918 202.107 228.74C202.467 228.558 202.873 228.467 203.324 228.467C203.771 228.467 204.163 228.553 204.5 228.727C204.837 228.9 205.124 229.148 205.361 229.472C205.598 229.791 205.787 230.174 205.929 230.62C206.07 231.062 206.17 231.554 206.229 232.097V232.555C206.17 233.083 206.07 233.566 205.929 234.004C205.787 234.441 205.598 234.82 205.361 235.139C205.124 235.458 204.835 235.704 204.493 235.877C204.156 236.05 203.762 236.137 203.311 236.137C202.864 236.137 202.461 236.043 202.101 235.856C201.745 235.67 201.442 235.408 201.191 235.07C200.941 234.733 200.749 234.337 200.617 233.881C200.485 233.421 200.419 232.922 200.419 232.384ZM202.066 232.24V232.384C202.066 232.721 202.096 233.035 202.155 233.327C202.219 233.619 202.317 233.876 202.449 234.1C202.581 234.318 202.752 234.492 202.962 234.619C203.176 234.742 203.431 234.804 203.728 234.804C204.101 234.804 204.409 234.722 204.65 234.558C204.892 234.394 205.081 234.173 205.218 233.895C205.359 233.612 205.455 233.298 205.505 232.951V231.714C205.478 231.445 205.421 231.194 205.334 230.962C205.252 230.729 205.14 230.527 204.999 230.354C204.858 230.176 204.682 230.039 204.473 229.943C204.268 229.843 204.024 229.793 203.741 229.793C203.44 229.793 203.185 229.857 202.976 229.984C202.766 230.112 202.593 230.287 202.456 230.511C202.324 230.734 202.226 230.994 202.162 231.29C202.098 231.586 202.066 231.903 202.066 232.24ZM210.372 228.604V236H208.718V228.604H210.372ZM208.608 226.662C208.608 226.411 208.69 226.204 208.854 226.04C209.023 225.871 209.256 225.787 209.552 225.787C209.843 225.787 210.074 225.871 210.242 226.04C210.411 226.204 210.495 226.411 210.495 226.662C210.495 226.908 210.411 227.113 210.242 227.277C210.074 227.441 209.843 227.523 209.552 227.523C209.256 227.523 209.023 227.441 208.854 227.277C208.69 227.113 208.608 226.908 208.608 226.662ZM213.811 230.183V236H212.163V228.604H213.715L213.811 230.183ZM213.517 232.028L212.983 232.021C212.988 231.497 213.061 231.017 213.202 230.579C213.348 230.142 213.549 229.766 213.804 229.451C214.063 229.137 214.373 228.895 214.733 228.727C215.093 228.553 215.494 228.467 215.937 228.467C216.292 228.467 216.613 228.517 216.9 228.617C217.192 228.713 217.44 228.87 217.646 229.089C217.855 229.308 218.015 229.592 218.124 229.943C218.233 230.29 218.288 230.716 218.288 231.222V236H216.634V231.215C216.634 230.859 216.581 230.579 216.477 230.374C216.376 230.164 216.228 230.016 216.032 229.93C215.841 229.839 215.602 229.793 215.314 229.793C215.032 229.793 214.779 229.852 214.556 229.971C214.332 230.089 214.143 230.251 213.988 230.456C213.838 230.661 213.722 230.898 213.64 231.167C213.558 231.436 213.517 231.723 213.517 232.028ZM224.707 228.604H226.204V235.795C226.204 236.46 226.063 237.025 225.78 237.49C225.498 237.955 225.104 238.308 224.598 238.55C224.092 238.796 223.506 238.919 222.841 238.919C222.558 238.919 222.244 238.878 221.897 238.796C221.556 238.714 221.223 238.582 220.899 238.399C220.58 238.222 220.314 237.987 220.1 237.695L220.872 236.725C221.136 237.039 221.428 237.269 221.747 237.415C222.066 237.561 222.401 237.634 222.752 237.634C223.13 237.634 223.451 237.563 223.716 237.422C223.985 237.285 224.192 237.082 224.338 236.813C224.484 236.545 224.557 236.216 224.557 235.829V230.278L224.707 228.604ZM219.683 232.384V232.24C219.683 231.68 219.751 231.169 219.888 230.709C220.024 230.244 220.22 229.845 220.476 229.513C220.731 229.175 221.041 228.918 221.405 228.74C221.77 228.558 222.182 228.467 222.643 228.467C223.121 228.467 223.529 228.553 223.866 228.727C224.208 228.9 224.493 229.148 224.721 229.472C224.949 229.791 225.126 230.174 225.254 230.62C225.386 231.062 225.484 231.554 225.548 232.097V232.555C225.489 233.083 225.388 233.566 225.247 234.004C225.106 234.441 224.919 234.82 224.687 235.139C224.454 235.458 224.167 235.704 223.825 235.877C223.488 236.05 223.089 236.137 222.629 236.137C222.178 236.137 221.77 236.043 221.405 235.856C221.045 235.67 220.735 235.408 220.476 235.07C220.22 234.733 220.024 234.337 219.888 233.881C219.751 233.421 219.683 232.922 219.683 232.384ZM221.33 232.24V232.384C221.33 232.721 221.362 233.035 221.426 233.327C221.494 233.619 221.597 233.876 221.733 234.1C221.875 234.318 222.052 234.492 222.267 234.619C222.485 234.742 222.743 234.804 223.039 234.804C223.426 234.804 223.743 234.722 223.989 234.558C224.24 234.394 224.431 234.173 224.563 233.895C224.7 233.612 224.796 233.298 224.851 232.951V231.714C224.823 231.445 224.766 231.194 224.68 230.962C224.598 230.729 224.486 230.527 224.345 230.354C224.203 230.176 224.026 230.039 223.812 229.943C223.597 229.843 223.344 229.793 223.053 229.793C222.757 229.793 222.499 229.857 222.28 229.984C222.062 230.112 221.882 230.287 221.74 230.511C221.604 230.734 221.501 230.994 221.433 231.29C221.364 231.586 221.33 231.903 221.33 232.24ZM234.79 228.604V229.807H230.62V228.604H234.79ZM231.823 226.792H233.471V233.956C233.471 234.184 233.503 234.359 233.566 234.482C233.635 234.601 233.728 234.681 233.847 234.722C233.965 234.763 234.104 234.783 234.264 234.783C234.378 234.783 234.487 234.776 234.592 234.763C234.697 234.749 234.781 234.735 234.845 234.722L234.852 235.979C234.715 236.021 234.555 236.057 234.373 236.089C234.195 236.121 233.99 236.137 233.758 236.137C233.38 236.137 233.045 236.071 232.753 235.938C232.461 235.802 232.233 235.581 232.069 235.275C231.905 234.97 231.823 234.564 231.823 234.059V226.792ZM237.688 225.5V236H236.048V225.5H237.688ZM237.401 232.028L236.868 232.021C236.873 231.511 236.943 231.039 237.08 230.606C237.221 230.174 237.417 229.798 237.668 229.479C237.923 229.155 238.229 228.907 238.584 228.733C238.939 228.556 239.334 228.467 239.767 228.467C240.131 228.467 240.459 228.517 240.751 228.617C241.047 228.717 241.302 228.879 241.517 229.103C241.731 229.321 241.893 229.608 242.002 229.964C242.116 230.315 242.173 230.743 242.173 231.249V236H240.519V231.235C240.519 230.88 240.466 230.597 240.361 230.388C240.261 230.178 240.113 230.028 239.917 229.937C239.721 229.841 239.482 229.793 239.199 229.793C238.903 229.793 238.641 229.852 238.413 229.971C238.19 230.089 238.003 230.251 237.853 230.456C237.702 230.661 237.588 230.898 237.511 231.167C237.438 231.436 237.401 231.723 237.401 232.028ZM247.102 236.137C246.555 236.137 246.06 236.048 245.618 235.87C245.181 235.688 244.807 235.435 244.497 235.111C244.192 234.788 243.957 234.407 243.793 233.97C243.629 233.532 243.547 233.061 243.547 232.555V232.281C243.547 231.702 243.631 231.178 243.8 230.709C243.968 230.24 244.203 229.839 244.504 229.506C244.805 229.169 245.16 228.911 245.57 228.733C245.98 228.556 246.425 228.467 246.903 228.467C247.432 228.467 247.895 228.556 248.291 228.733C248.688 228.911 249.016 229.162 249.275 229.485C249.54 229.804 249.736 230.185 249.863 230.627C249.995 231.069 250.062 231.557 250.062 232.09V232.794H244.347V231.611H248.435V231.481C248.425 231.185 248.366 230.907 248.257 230.647C248.152 230.388 247.99 230.178 247.771 230.019C247.553 229.859 247.261 229.779 246.896 229.779C246.623 229.779 246.379 229.839 246.165 229.957C245.955 230.071 245.78 230.237 245.639 230.456C245.497 230.675 245.388 230.939 245.311 231.249C245.238 231.554 245.201 231.898 245.201 232.281V232.555C245.201 232.878 245.244 233.179 245.331 233.457C245.422 233.73 245.554 233.97 245.728 234.175C245.901 234.38 246.11 234.542 246.356 234.66C246.603 234.774 246.883 234.831 247.197 234.831C247.594 234.831 247.947 234.751 248.257 234.592C248.567 234.432 248.836 234.207 249.063 233.915L249.932 234.756C249.772 234.988 249.565 235.212 249.31 235.426C249.054 235.635 248.742 235.806 248.373 235.938C248.008 236.071 247.585 236.137 247.102 236.137ZM259.57 228.604H261.067V235.795C261.067 236.46 260.926 237.025 260.644 237.49C260.361 237.955 259.967 238.308 259.461 238.55C258.955 238.796 258.369 238.919 257.704 238.919C257.422 238.919 257.107 238.878 256.761 238.796C256.419 238.714 256.086 238.582 255.763 238.399C255.444 238.222 255.177 237.987 254.963 237.695L255.735 236.725C256 237.039 256.291 237.269 256.61 237.415C256.929 237.561 257.264 237.634 257.615 237.634C257.993 237.634 258.315 237.563 258.579 237.422C258.848 237.285 259.055 237.082 259.201 236.813C259.347 236.545 259.42 236.216 259.42 235.829V230.278L259.57 228.604ZM254.546 232.384V232.24C254.546 231.68 254.614 231.169 254.751 230.709C254.888 230.244 255.084 229.845 255.339 229.513C255.594 229.175 255.904 228.918 256.269 228.74C256.633 228.558 257.046 228.467 257.506 228.467C257.984 228.467 258.392 228.553 258.729 228.727C259.071 228.9 259.356 229.148 259.584 229.472C259.812 229.791 259.99 230.174 260.117 230.62C260.249 231.062 260.347 231.554 260.411 232.097V232.555C260.352 233.083 260.252 233.566 260.11 234.004C259.969 234.441 259.782 234.82 259.55 235.139C259.317 235.458 259.03 235.704 258.688 235.877C258.351 236.05 257.952 236.137 257.492 236.137C257.041 236.137 256.633 236.043 256.269 235.856C255.909 235.67 255.599 235.408 255.339 235.07C255.084 234.733 254.888 234.337 254.751 233.881C254.614 233.421 254.546 232.922 254.546 232.384ZM256.193 232.24V232.384C256.193 232.721 256.225 233.035 256.289 233.327C256.357 233.619 256.46 233.876 256.597 234.1C256.738 234.318 256.916 234.492 257.13 234.619C257.349 234.742 257.606 234.804 257.902 234.804C258.29 234.804 258.606 234.722 258.853 234.558C259.103 234.394 259.295 234.173 259.427 233.895C259.563 233.612 259.659 233.298 259.714 232.951V231.714C259.687 231.445 259.63 231.194 259.543 230.962C259.461 230.729 259.349 230.527 259.208 230.354C259.067 230.176 258.889 230.039 258.675 229.943C258.461 229.843 258.208 229.793 257.916 229.793C257.62 229.793 257.362 229.857 257.144 229.984C256.925 230.112 256.745 230.287 256.604 230.511C256.467 230.734 256.364 230.994 256.296 231.29C256.228 231.586 256.193 231.903 256.193 232.24ZM264.431 230.012V236H262.783V228.604H264.355L264.431 230.012ZM266.693 228.556L266.68 230.087C266.579 230.069 266.47 230.055 266.352 230.046C266.238 230.037 266.124 230.032 266.01 230.032C265.727 230.032 265.479 230.073 265.265 230.155C265.05 230.233 264.87 230.347 264.725 230.497C264.583 230.643 264.474 230.821 264.396 231.03C264.319 231.24 264.273 231.475 264.26 231.734L263.884 231.762C263.884 231.297 263.929 230.866 264.021 230.47C264.112 230.073 264.248 229.725 264.431 229.424C264.618 229.123 264.85 228.888 265.128 228.72C265.41 228.551 265.736 228.467 266.105 228.467C266.206 228.467 266.313 228.476 266.427 228.494C266.545 228.512 266.634 228.533 266.693 228.556ZM271.649 234.517V230.989C271.649 230.725 271.602 230.497 271.506 230.306C271.41 230.114 271.264 229.966 271.068 229.861C270.877 229.757 270.635 229.704 270.344 229.704C270.075 229.704 269.842 229.75 269.646 229.841C269.451 229.932 269.298 230.055 269.188 230.21C269.079 230.365 269.024 230.54 269.024 230.736H267.384C267.384 230.445 267.454 230.162 267.596 229.889C267.737 229.615 267.942 229.371 268.211 229.157C268.48 228.943 268.801 228.774 269.175 228.651C269.549 228.528 269.968 228.467 270.433 228.467C270.989 228.467 271.481 228.56 271.909 228.747C272.342 228.934 272.682 229.216 272.928 229.595C273.178 229.968 273.304 230.438 273.304 231.003V234.291C273.304 234.628 273.326 234.931 273.372 235.2C273.422 235.465 273.493 235.695 273.584 235.891V236H271.896C271.818 235.822 271.757 235.597 271.711 235.323C271.67 235.045 271.649 234.776 271.649 234.517ZM271.889 231.502L271.902 232.521H270.72C270.414 232.521 270.146 232.55 269.913 232.609C269.681 232.664 269.487 232.746 269.332 232.855C269.177 232.965 269.061 233.097 268.983 233.252C268.906 233.407 268.867 233.582 268.867 233.778C268.867 233.974 268.913 234.154 269.004 234.318C269.095 234.478 269.227 234.603 269.4 234.694C269.578 234.785 269.792 234.831 270.043 234.831C270.38 234.831 270.674 234.763 270.925 234.626C271.18 234.485 271.381 234.314 271.526 234.113C271.672 233.908 271.75 233.715 271.759 233.532L272.292 234.264C272.237 234.451 272.144 234.651 272.012 234.865C271.88 235.079 271.706 235.285 271.492 235.48C271.283 235.672 271.03 235.829 270.733 235.952C270.442 236.075 270.104 236.137 269.722 236.137C269.239 236.137 268.808 236.041 268.43 235.85C268.051 235.654 267.755 235.392 267.541 235.063C267.327 234.731 267.22 234.355 267.22 233.936C267.22 233.544 267.293 233.197 267.438 232.896C267.589 232.591 267.808 232.336 268.095 232.131C268.386 231.926 268.742 231.771 269.161 231.666C269.58 231.557 270.059 231.502 270.597 231.502H271.889ZM276.681 230.025V238.844H275.033V228.604H276.551L276.681 230.025ZM281.5 232.233V232.377C281.5 232.915 281.436 233.414 281.309 233.874C281.186 234.33 281.001 234.729 280.755 235.07C280.513 235.408 280.215 235.67 279.859 235.856C279.504 236.043 279.094 236.137 278.629 236.137C278.169 236.137 277.765 236.052 277.419 235.884C277.077 235.711 276.788 235.467 276.551 235.152C276.314 234.838 276.122 234.469 275.977 234.045C275.835 233.617 275.735 233.147 275.676 232.637V232.083C275.735 231.541 275.835 231.049 275.977 230.606C276.122 230.164 276.314 229.784 276.551 229.465C276.788 229.146 277.077 228.9 277.419 228.727C277.761 228.553 278.16 228.467 278.615 228.467C279.08 228.467 279.493 228.558 279.853 228.74C280.213 228.918 280.516 229.173 280.762 229.506C281.008 229.834 281.192 230.23 281.315 230.695C281.438 231.156 281.5 231.668 281.5 232.233ZM279.853 232.377V232.233C279.853 231.892 279.821 231.575 279.757 231.283C279.693 230.987 279.593 230.727 279.456 230.504C279.319 230.281 279.144 230.107 278.93 229.984C278.72 229.857 278.467 229.793 278.171 229.793C277.879 229.793 277.629 229.843 277.419 229.943C277.209 230.039 277.034 230.174 276.893 230.347C276.751 230.52 276.642 230.723 276.564 230.955C276.487 231.183 276.432 231.431 276.4 231.7V233.026C276.455 233.354 276.549 233.655 276.681 233.929C276.813 234.202 277 234.421 277.241 234.585C277.487 234.744 277.802 234.824 278.185 234.824C278.481 234.824 278.734 234.76 278.943 234.633C279.153 234.505 279.324 234.33 279.456 234.106C279.593 233.879 279.693 233.617 279.757 233.32C279.821 233.024 279.853 232.71 279.853 232.377ZM284.528 225.5V236H282.888V225.5H284.528ZM284.241 232.028L283.708 232.021C283.713 231.511 283.783 231.039 283.92 230.606C284.061 230.174 284.257 229.798 284.508 229.479C284.763 229.155 285.068 228.907 285.424 228.733C285.779 228.556 286.174 228.467 286.606 228.467C286.971 228.467 287.299 228.517 287.591 228.617C287.887 228.717 288.142 228.879 288.356 229.103C288.571 229.321 288.732 229.608 288.842 229.964C288.956 230.315 289.013 230.743 289.013 231.249V236H287.358V231.235C287.358 230.88 287.306 230.597 287.201 230.388C287.101 230.178 286.953 230.028 286.757 229.937C286.561 229.841 286.322 229.793 286.039 229.793C285.743 229.793 285.481 229.852 285.253 229.971C285.03 230.089 284.843 230.251 284.692 230.456C284.542 230.661 284.428 230.898 284.351 231.167C284.278 231.436 284.241 231.723 284.241 232.028ZM292.581 226.047L292.417 233.067H291.009L290.838 226.047H292.581ZM290.79 235.221C290.79 234.97 290.872 234.76 291.036 234.592C291.205 234.419 291.437 234.332 291.733 234.332C292.025 234.332 292.255 234.419 292.424 234.592C292.592 234.76 292.677 234.97 292.677 235.221C292.677 235.462 292.592 235.67 292.424 235.843C292.255 236.011 292.025 236.096 291.733 236.096C291.437 236.096 291.205 236.011 291.036 235.843C290.872 235.67 290.79 235.462 290.79 235.221Z" fill="#F78464"/>
</svg>
