<?xml version="1.0" standalone="no"?>
<!DOCTYPE svg PUBLIC "-//W3C//DTD SVG 20010904//EN"
 "http://www.w3.org/TR/2001/REC-SVG-20010904/DTD/svg10.dtd">
<svg version="1.0" xmlns="http://www.w3.org/2000/svg"
 width="776.000000pt" height="776.000000pt" viewBox="0 0 776.000000 776.000000"
 preserveAspectRatio="xMidYMid meet">
<metadata>
Created by potrace 1.14, written by Peter Selinger 2001-2017
</metadata>
<g transform="translate(0.000000,776.000000) scale(0.100000,-0.100000)"
fill="#000000" stroke="none">
<path d="M1779 7756 c-2 -2 -33 -7 -69 -10 -193 -20 -462 -100 -640 -192 -92
-47 -286 -165 -300 -183 -3 -3 -36 -32 -75 -63 -367 -296 -617 -758 -683
-1258 -9 -72 -9 -4245 0 -4330 32 -291 152 -616 318 -859 96 -143 242 -305
365 -406 33 -28 62 -53 65 -56 22 -24 238 -156 330 -201 190 -92 343 -140 575
-178 104 -17 228 -18 2205 -18 1699 0 2114 3 2194 14 436 59 815 245 1120 548
112 112 122 124 199 228 195 267 326 595 364 918 10 81 11 4264 1 4340 -7 51
-11 76 -23 140 -3 14 -7 35 -10 48 -23 124 -91 315 -161 452 -202 398 -514
700 -917 890 -85 39 -309 119 -351 125 -20 2 -138 25 -216 42 -35 7 -4283 17
-4291 9z"/>
</g>
</svg>
