<svg width="118" height="112" viewBox="0 0 118 112" fill="none" xmlns="http://www.w3.org/2000/svg">
<path d="M117.333 55.7867L104.32 70.6133L106.133 90.24L86.88 94.6133L76.8 111.573L58.6667 103.787L40.5333 111.627L30.4533 94.6667L11.2 90.2933L13.0133 70.6133L0 55.7867L13.0133 40.9067L11.2 21.28L30.4533 16.96L40.5333 0L58.6667 7.78667L76.8 0L86.88 16.96L106.133 21.3333L104.32 40.96L117.333 55.7867ZM103.093 55.7867L93.3333 44.5333L94.6133 29.6533L80 26.4533L72.4267 13.4933L58.6667 19.4133L44.9067 13.4933L37.3333 26.4533L22.72 29.6L24 44.48L14.24 55.7867L24 66.9867L22.72 81.92L37.3333 85.12L44.9067 98.08L58.6667 92.1067L72.4267 98.0267L80 85.12L94.6133 81.8667L93.3333 66.9867L103.093 55.7867M53.3333 71.7867H64V82.4533H53.3333V71.7867ZM53.3333 29.12H64V61.12H53.3333V29.12Z" fill="#F78464"/>
</svg>